<?xml version="1.0" encoding="UTF-8" standalone="no"?>
<!-- Created with Inkscape (http://www.inkscape.org/) -->

<svg
   xmlns:dc="http://purl.org/dc/elements/1.1/"
   xmlns:cc="http://creativecommons.org/ns#"
   xmlns:rdf="http://www.w3.org/1999/02/22-rdf-syntax-ns#"
   xmlns:svg="http://www.w3.org/2000/svg"
   xmlns="http://www.w3.org/2000/svg"
   xmlns:sodipodi="http://sodipodi.sourceforge.net/DTD/sodipodi-0.dtd"
   xmlns:inkscape="http://www.inkscape.org/namespaces/inkscape"
   version="1.1"
   id="svg2"
   width="25.504705"
   height="18"
   viewBox="0 0 25.504705 18.000001"
   sodipodi:docname="bird.svg"
   inkscape:version="0.92.3 (2405546, 2018-03-11)"
   inkscape:label="SilkS">
  <metadata
     id="metadata8">
    <rdf:RDF>
      <cc:Work
         rdf:about="">
        <dc:format>image/svg+xml</dc:format>
        <dc:type
           rdf:resource="http://purl.org/dc/dcmitype/StillImage" />
        <dc:title></dc:title>
      </cc:Work>
    </rdf:RDF>
  </metadata>
  <defs
     id="defs6" />
  <sodipodi:namedview
     pagecolor="#ffffff"
     bordercolor="#666666"
     borderopacity="1"
     objecttolerance="10"
     gridtolerance="10"
     guidetolerance="10"
     inkscape:pageopacity="0"
     inkscape:pageshadow="2"
     inkscape:window-width="2549"
     inkscape:window-height="1357"
     id="namedview4"
     showgrid="false"
     inkscape:measure-start="0,0"
     inkscape:measure-end="0,0"
     fit-margin-top="2"
     fit-margin-left="2"
     fit-margin-right="2"
     fit-margin-bottom="2"
     inkscape:zoom="36.264105"
     inkscape:cx="8.0378796"
     inkscape:cy="5.8366008"
     inkscape:window-x="0"
     inkscape:window-y="33"
     inkscape:window-maximized="0"
     inkscape:current-layer="layer1" />
  <g
     inkscape:groupmode="layer"
     id="layer1"
     inkscape:label="SilkS"
     transform="translate(2.0543551e-8,6.9998896)">
    <path
       style="fill:#000000;stroke-width:0.01681199"
       d="m 12.998584,8.9742912 c -0.09072,-0.0332 -0.110394,-0.056399 -0.128118,-0.1513976 -0.0083,-0.044399 -0.02093,-0.086799 -0.02804,-0.093799 -0.0071,-0.008 -0.06945,0.006 -0.13855,0.031 -0.159078,0.055799 -0.405049,0.062799 -0.562744,0.016 -0.23051,-0.067999 -0.361385,-0.2118766 -0.335749,-0.3690541 0.0135,-0.082799 0.06431,-0.1725973 0.112073,-0.1981969 0.05928,-0.031799 0.168515,-0.0214 0.273872,0.0256 0.05936,0.0266 0.1159,0.041199 0.137854,0.035599 0.02047,-0.006 0.08867,-0.054599 0.151548,-0.1099982 0.137749,-0.1211981 0.234719,-0.1647974 0.303153,-0.1363979 0.06135,0.0254 0.114308,0.1055984 0.157571,0.2383163 0.0351,0.1077983 0.09455,0.1837971 0.143594,0.1837971 0.0343,0 0.318259,-0.097799 0.392635,-0.1351979 0.110136,-0.055399 0.169934,-0.1515976 0.134928,-0.2169966 -0.0288,-0.053799 -0.115586,-0.088799 -0.254953,-0.1029983 -0.223457,-0.0226 -0.287638,-0.082799 -0.307956,-0.2889355 -0.01892,-0.1919969 -0.07958,-0.2814555 -0.190963,-0.2814555 -0.05814,0 -0.150713,0.084799 -0.164623,0.1509976 -0.01828,0.086799 -0.03906,0.1179981 -0.07859,0.1179981 -0.07263,0 -0.20465,-0.082599 -0.359564,-0.2250964 C 12.171179,7.3860763 12.068119,7.3024776 12.026944,7.278478 11.862627,7.1822795 11.558134,7.1012808 10.947482,6.9914826 10.581851,6.9256836 10.47382,6.898684 10.336311,6.838085 10.128586,6.7466864 9.9885493,6.5981488 9.8528439,6.3254731 9.7665433,6.1520758 9.7375397,5.9992782 9.780945,5.9466991 c 0.058987,-0.071399 0.1527816,-0.090799 0.55925,-0.1151982 0.216177,-0.014 0.509507,-0.036399 0.651845,-0.052199 0.150374,-0.016 0.291646,-0.0236 0.337205,-0.016 0.07119,0.01 0.08155,0.018 0.112502,0.082399 0.01876,0.038799 0.05023,0.1407977 0.06996,0.2266164 0.05018,0.2183365 0.102651,0.2907754 0.279278,0.3855339 0.298762,0.1603975 1.04276,0.4472129 1.34838,0.5199918 0.457909,0.1089982 0.683971,0.2175565 0.888517,0.4264532 0.166579,0.1701973 0.218689,0.3300748 0.187979,0.5770709 -0.03924,0.315615 -0.169798,0.6142303 -0.305026,0.697689 -0.09292,0.057399 -0.776516,0.3236949 -0.823941,0.3210349 -0.0116,-6.6e-4 -0.05134,-0.012 -0.08831,-0.0258 z"
       id="path898"
       inkscape:connector-curvature="0" />
    <path
       style="fill:#000000;stroke-width:0.01681199"
       d="M 12.502592,6.2761739 C 12.236111,6.2357745 12.040007,6.075577 11.846924,5.7405223 11.639678,5.380868 11.464412,5.1849311 11.349946,5.1849311 c -0.05948,0 -0.123164,0.063799 -0.173561,0.1739973 -0.05584,0.121998 -0.09436,0.1601974 -0.174821,0.1731972 -0.103239,0.016 -0.219084,-0.051999 -0.439219,-0.2610759 -0.27475,-0.2608158 -0.316153,-0.2640958 -0.334129,-0.0264 -0.0057,0.075399 -0.02097,0.1445977 -0.0375,0.1697973 -0.02428,0.036999 -0.03571,0.040999 -0.08869,0.0312 C 9.9677563,5.4204474 9.8307188,5.3296488 9.5957402,5.1099323 9.4705001,4.9929341 9.4121751,4.9491348 9.3862593,4.9527348 c -0.035166,0.006 -0.035798,0.01 -0.03018,0.2593559 0.00464,0.2053767 7.128e-4,0.2639758 -0.020394,0.3047952 -0.043975,0.084999 -0.1343479,0.096198 -0.2334061,0.029 C 8.912011,5.4166874 8.631737,4.8662161 8.567787,4.496282 8.5404754,4.3382845 8.5578272,4.2541858 8.633272,4.178727 8.7612059,4.050729 8.9797147,4.0275294 9.3628408,4.1013282 c 0.4860876,0.093599 1.5735302,0.3866939 1.9644512,0.5295117 0.437454,0.1597974 0.564459,0.249316 0.805929,0.568011 0.271477,0.3582743 0.42309,0.4770324 0.68039,0.5329316 0.271055,0.058799 1.053026,0.048599 1.487861,-0.02 0.710567,-0.111398 1.322528,-0.3706339 1.891349,-0.8013071 0.357268,-0.2705157 0.912632,-0.8163071 1.064169,-1.0458434 0.211789,-0.320795 0.501601,-0.9651048 0.759995,-1.6896133 0.364614,-1.0223039 0.857872,-1.78059188 1.446241,-2.22328489 0.294787,-0.22179649 0.628594,-0.35469439 1.216171,-0.48417234 0.372146,-0.0819987 0.408903,-0.20151682 0.465088,-1.51233607 0.02488,-0.5804909 0.04802,-0.7079888 0.147458,-0.8126872 0.101258,-0.1065983 0.192637,-0.1205981 0.306839,-0.046999 0.137298,0.088399 0.234289,0.2223964 0.234395,0.3235548 0,0.076599 -0.05076,0.1533976 -0.211853,0.319755 -0.24368,0.251756 -0.239128,0.3867939 0.013,0.3864339 0.127998,-1.6e-4 0.227988,-0.033 0.345078,-0.1131982 0.09996,-0.068399 0.149138,-0.127598 0.214799,-0.2587159 0.0585,-0.1167982 0.08504,-0.1465977 0.168577,-0.189397 0.08872,-0.045399 0.229481,-0.044599 0.334749,0.00198 0.116918,0.051799 0.371334,0.2496361 0.5173,0.4024137 0.22031,0.2305963 0.291457,0.4253932 0.289851,0.7936274 -0.0018,0.41397348 -0.115878,0.84060673 -0.22475,0.84060673 -0.04074,0 -0.06472,-0.063999 -0.08514,-0.22697641 -0.02652,-0.21171665 -0.0698,-0.31115508 -0.186057,-0.42741322 -0.111138,-0.1111983 -0.281522,-0.1861971 -0.422587,-0.1861971 -0.08786,0 -0.235931,-0.051999 -0.376084,-0.1321979 -0.173638,-0.099398 -0.240235,-0.1149982 -0.335217,-0.078599 -0.09272,0.035399 -0.262184,0.187597 -0.301825,0.2712357 -0.03278,0.068999 -0.0234,0.1323979 0.02332,0.1573975 0.0174,0.01 0.189477,0.0247996 0.382274,0.0341994 0.357099,0.0179997 0.477019,0.0363994 0.613895,0.0969985 0.207606,0.0917986 0.369236,0.35015447 0.292431,0.46737262 -0.0481,0.0733988 -0.0923,0.0785987 -0.317451,0.0375994 -0.156658,-0.0285995 -0.267888,-0.0371994 -0.473719,-0.0371994 -0.249204,1.6e-4 -0.291249,0.004 -0.571607,0.065599 -0.37915,0.0819987 -0.570433,0.0893986 -0.715656,0.0279996 -0.08588,-0.0363994 -0.101479,-0.0379994 -0.188777,-0.0199997 -0.303025,0.062999 -0.944927,0.49365219 -1.332107,0.89390587 -0.339607,0.35107445 -0.469153,0.60885041 -0.940941,1.87237041 -0.426083,1.141122 -0.510618,1.3147992 -0.877684,1.8032315 -0.741939,0.9872444 -1.486408,1.458797 -2.844204,1.8014916 -0.734894,0.185397 -1.16254,0.2534559 -1.649523,0.2621958 -0.198802,0.004 -0.410633,-9.8e-4 -0.470735,-0.01 z"
       id="path896"
       inkscape:connector-curvature="0" />
    <path
       style="fill:#000000;stroke-width:0.01681199"
       d="m 14.506581,5.5010061 c -0.03815,-0.038199 -0.0217,-0.1093983 0.04461,-0.1931969 0.161881,-0.2047968 0.561392,-0.508712 0.742189,-0.5646311 0.287751,-0.088999 0.588419,-0.064399 0.588419,0.048199 0,0.052399 -0.13187,0.188797 -0.277398,0.2866955 -0.229941,0.1547975 -0.636923,0.3583343 -0.833012,0.4165734 -0.105996,0.0314 -0.236556,0.034599 -0.26481,0.006 z"
       id="path894"
       inkscape:connector-curvature="0" />
    <path
       style="fill:#000000;stroke-width:0.01681199"
       d="m 13.107823,5.4558068 c -0.04679,-0.008 -0.05765,-0.018 -0.05301,-0.043799 0.01104,-0.062799 0.07158,-0.125398 0.211419,-0.2183365 0.445178,-0.2962154 1.213949,-0.5169719 1.344761,-0.3861739 0.03935,0.039399 0.0021,0.1157981 -0.114456,0.2345163 -0.11435,0.1165981 -0.296931,0.2415361 -0.428666,0.2934753 -0.10676,0.041999 -0.399495,0.094398 -0.657436,0.1175982 -0.206649,0.018 -0.212703,0.018 -0.302616,0.002 z"
       id="path892"
       inkscape:connector-curvature="0" />
    <path
       style="fill:#000000;stroke-width:0.01681199"
       d="M 12.466954,5.0454733 C 12.287511,4.9658746 12.166003,4.873276 12.189983,4.8344766 c 0.02012,-0.032599 0.259625,-0.059799 0.534106,-0.060599 0.256408,-7.8e-4 0.284249,0.002 0.326156,0.0334 0.0252,0.018 0.05648,0.050199 0.06951,0.069799 0.02125,0.032 0.0198,0.039399 -0.0141,0.070799 -0.05949,0.055399 -0.296145,0.1409977 -0.409721,0.1479976 -0.08619,0.006 -0.119518,-0.00198 -0.228975,-0.050599 z"
       id="path890"
       inkscape:connector-curvature="0" />
    <path
       style="fill:#000000;stroke-width:0.01681199"
       d="M 7.1815973,4.9662746 C 6.8964504,4.938675 6.7494301,4.9142754 6.654535,4.8788759 6.4505553,4.8028771 6.3546424,4.7002788 6.3712775,4.5763007 6.3827773,4.4905021 6.342448,4.3559842 6.2387576,4.1340877 6.1261454,3.8931115 6.0911359,3.739074 6.1014278,3.5298773 6.1115276,3.3243805 6.1544689,3.1974625 6.2841449,2.9897458 6.4926798,2.6556911 6.6168892,2.5842722 7.0852206,2.5291531 7.2945773,2.5045535 7.3194381,2.4855538 7.3736669,2.3091966 7.4514516,2.0562406 7.5104427,2.026221 7.9321524,2.025121 8.2366638,2.0243211 8.5465155,2.049521 8.5806794,2.07792 8.6402884,2.127319 8.5621394,2.3150763 8.4481255,2.396255 8.4205775,2.416255 8.3210395,2.453854 8.22693,2.480654 8.0013952,2.5448528 7.8481738,2.6236516 7.6943626,2.7542295 7.544177,2.8818275 7.4061928,2.9552463 7.2476719,2.9919458 7.0783705,3.0311451 6.946631,3.1069439 6.8117332,3.2427218 c -0.127304,0.128198 -0.2002863,0.253516 -0.2254977,0.3873539 -0.020568,0.1091983 0.01282,0.3074751 0.071141,0.4225733 0.086705,0.1711973 0.3474439,0.3522744 0.5662506,0.3934338 0.1262161,0.0238 0.194319,0.060399 0.3093818,0.1667973 0.1731152,0.1599975 0.2209225,0.2743757 0.1375618,0.3289948 -0.050891,0.033399 -0.2792102,0.044799 -0.4889734,0.0244 z"
       id="path888"
       inkscape:connector-curvature="0" />
    <path
       style="fill:#000000;stroke-width:0.01681199"
       d="M 3.4577418,4.7197185 C 3.1948559,4.7057187 2.9749398,4.6759191 2.7935587,4.6313199 2.5692836,4.5763207 2.4956644,4.5491212 2.4290724,4.496722 2.3740233,4.4533227 2.3144262,4.3013251 2.3148022,4.2049466 c 3.53e-4,-0.090399 0.057943,-0.193197 0.1327839,-0.2369563 0.079661,-0.046599 0.2782038,-0.053999 0.5394187,-0.02 0.2135048,0.0276 1.7122905,0.2889354 2.1827207,0.3805139 0.1417618,0.0276 0.3387679,0.056799 0.4377917,0.064599 0.263573,0.0212 0.4056456,0.090599 0.4056456,0.1981969 0,0.0208 -0.01324,0.044799 -0.029422,0.053399 -0.049143,0.0262 -0.2652114,0.051399 -0.5926226,0.069399 -0.2752306,0.016 -1.6903523,0.02 -1.9333788,0.006 z"
       id="path886"
       inkscape:connector-curvature="0" />
    <path
       style="fill:#000000;stroke-width:0.01681199"
       d="M 7.795235,4.495562 C 7.7258861,4.4589626 7.6540132,4.4101633 7.6355215,4.3871637 c -0.0185,-0.023 -0.050715,-0.064199 -0.071603,-0.091399 C 7.543031,4.2685656 7.4341407,4.1839669 7.3219403,4.1079681 7.2097401,4.0319693 7.0880992,3.9397708 7.0516264,3.9033714 6.9002748,3.7519738 6.9020387,3.6133759 7.0574663,3.4447586 7.1535108,3.3405603 7.2420454,3.291561 7.390226,3.2603615 7.5351157,3.229962 7.5969019,3.2029624 7.744804,3.106164 c 0.2013596,-0.131798 0.3269174,-0.1337979 0.3908526,-0.006 0.038077,0.076199 0.036659,0.1633974 -0.00518,0.3194149 -0.042233,0.1573975 -0.043781,0.3463145 -0.00544,0.6637095 0.034565,0.2861155 0.026308,0.3474945 -0.057033,0.4238333 -0.078433,0.071799 -0.1175101,0.070199 -0.2727541,-0.012 z"
       id="path884"
       inkscape:connector-curvature="0" />
    <path
       style="fill:#000000;stroke-width:0.01681199"
       d="M 13.665181,4.4855622 C 13.551259,4.4281631 13.433105,4.2198264 13.385216,3.99217 c -0.0642,-0.3052152 4.42e-4,-1.1275622 0.09252,-1.1768414 0.08223,-0.043999 0.252133,0.012 0.252133,0.083799 0,0.0268 0.01108,0.033799 0.05265,0.033799 0.09703,0 0.218586,0.1749972 0.309702,0.445773 0.08754,0.2601758 0.04557,0.6695894 -0.09583,0.9349052 -0.08571,0.1607974 -0.217547,0.2291964 -0.331207,0.1717973 z"
       id="path882"
       inkscape:connector-curvature="0" />
    <path
       style="fill:#000000;stroke-width:0.01681199"
       d="m 15.850823,4.497562 c -0.12725,-0.032599 -0.110185,-0.072799 0.103166,-0.2427162 0.08513,-0.067799 0.272037,-0.2279364 0.415359,-0.3558344 0.49903,-0.4453929 0.745766,-0.6361699 0.810816,-0.6269301 0.03217,0.004 0.03903,0.018 0.04351,0.079999 0.0095,0.1335979 -0.117212,0.4073535 -0.296511,0.6403099 -0.156377,0.2031767 -0.444217,0.4277332 -0.615413,0.4801124 -0.09996,0.0306 -0.380045,0.045799 -0.460929,0.025 z"
       id="path880"
       inkscape:connector-curvature="0" />
    <path
       style="fill:#000000;stroke-width:0.01681199"
       d="m 14.74316,4.3007651 c -0.0766,-0.037799 -0.185487,-0.1613975 -0.232331,-0.2637559 -0.07557,-0.1651973 -0.09994,-0.2910354 -0.09983,-0.5157118 1.51e-4,-0.317255 0.06028,-0.5128519 0.192385,-0.6259301 0.157778,-0.1349979 0.409624,-0.128398 0.541246,0.014 0.0835,0.090599 0.132666,0.3292348 0.170615,0.8282869 l 0.02096,0.2755556 -0.135808,0.1143982 C 14.97957,4.3136051 14.860842,4.3584444 14.743166,4.3004053 Z"
       id="path878"
       inkscape:connector-curvature="0" />
    <path
       style="fill:#000000;stroke-width:0.01681199"
       d="m 12.624303,4.2585657 c -0.179437,-0.031799 -0.232569,-0.123198 -0.228369,-0.3926937 0.0029,-0.1849971 0.06988,-0.5502514 0.155038,-0.8452067 0.134782,-0.4668126 0.20736,-0.3837139 0.356427,0.4080936 0.06416,0.3408146 0.07478,0.6048104 0.02783,0.692169 -0.05747,0.1069983 -0.179561,0.1609975 -0.310933,0.1375978 z"
       id="path876"
       inkscape:connector-curvature="0" />
    <path
       style="fill:#000000;stroke-width:0.01681199"
       d="m 11.695616,4.1403676 c -0.0759,-0.0214 -0.14537,-0.087999 -0.170085,-0.1627974 -0.02897,-0.087799 -0.02363,-0.3926738 0.0097,-0.5551312 0.06312,-0.3073352 0.258162,-0.8128872 0.32325,-0.8378668 0.08692,-0.0334 0.172988,0.1459977 0.23168,0.4826924 0.03313,0.190197 0.06294,0.6532296 0.04905,0.7620679 -0.02041,0.1599975 -0.104183,0.2628559 -0.249144,0.3060152 -0.09367,0.0278 -0.11189,0.0284 -0.194489,0.006 z"
       id="path874"
       inkscape:connector-curvature="0" />
    <path
       style="fill:#000000;stroke-width:0.01681199"
       d="m 10.47221,4.0663688 c -0.169157,-0.044999 -0.239237,-0.1087983 -0.239237,-0.2177766 0,-0.2571559 0.455867,-1.3665584 0.581319,-1.4146976 0.124034,-0.047599 0.273128,0.3200349 0.301134,0.7425482 0.01452,0.2190966 -0.0081,0.3492545 -0.09014,0.5185319 -0.156236,0.3223749 -0.321205,0.4331531 -0.55308,0.3713941 z"
       id="path872"
       inkscape:connector-curvature="0" />
    <path
       style="fill:#000000;stroke-width:0.01681199"
       d="M 9.36208,3.8795717 C 9.2882932,3.8431723 9.2578777,3.7789733 9.2578777,3.6594152 c 0,-0.127198 0.035221,-0.2445961 0.1296899,-0.4325931 0.190709,-0.379554 0.4108452,-0.6014105 0.5967414,-0.6014105 0.249953,0 0.23874,0.4273932 -0.025194,0.9603048 -0.084563,0.1707973 -0.1651474,0.2575759 -0.2732061,0.2943953 -0.1029063,0.035 -0.2520944,0.0348 -0.3238289,-5.4e-4 z"
       id="path870"
       inkscape:connector-curvature="0" />
    <path
       style="fill:#000000;stroke-width:0.01681199"
       d="M 5.0969109,3.7713734 C 4.0057767,3.7123744 3.1177095,3.6387755 2.7600444,3.5773765 2.2735709,3.4939778 2.0623468,3.3482201 2.0623468,3.0957041 c 0,-0.1313979 0.097749,-0.1799971 0.3614577,-0.1795971 0.3358979,4.8e-4 0.9042237,0.1151981 2.2099955,0.4458529 0.8438992,0.2137366 1.0431245,0.2824756 1.0431245,0.3598943 0,0.071599 -0.066541,0.077199 -0.5800136,0.049399 z"
       id="path868"
       inkscape:connector-curvature="0" />
    <path
       style="fill:#000000;stroke-width:0.01681199"
       d="M 8.3721335,3.7317741 C 8.213882,3.6629752 8.2357756,3.4101792 8.4348045,3.0082455 8.5511247,2.7733292 8.7155039,2.536413 8.8739064,2.3753555 9.0086402,2.2383577 9.0466916,2.2253579 9.1580547,2.2773571 c 0.124634,0.058399 0.1571095,0.1005984 0.1450717,0.188397 -0.01502,0.1095982 -0.2869325,0.7913675 -0.4028935,1.010264 -0.067821,0.127998 -0.1603414,0.2055368 -0.2948873,0.2470961 -0.125758,0.038799 -0.1607335,0.040199 -0.2332121,0.008 z"
       id="path866"
       inkscape:connector-curvature="0" />
    <path
       style="fill:#000000;stroke-width:0.01681199"
       d="m 15.957281,3.7157743 c -0.05173,-0.037799 -0.03726,-0.126998 0.04587,-0.2829755 0.104739,-0.1963969 0.267334,-0.4198934 0.416309,-0.572191 0.154265,-0.1575975 0.19437,-0.1679973 0.211479,-0.053799 0.0138,0.091998 -0.01628,0.2582559 -0.06366,0.3518344 -0.07139,0.1409978 -0.343845,0.4393131 -0.490276,0.5368515 -0.07601,0.050599 -0.07781,0.050999 -0.119714,0.0202 z"
       id="path864"
       inkscape:connector-curvature="0" />
    <path
       style="fill:#000000;stroke-width:0.01681199"
       d="m 15.689092,3.1783828 c -0.02778,-0.0204 -0.02999,-0.039999 -0.02119,-0.189197 0.01098,-0.1859971 0.06517,-0.4684326 0.104448,-0.5443914 0.0374,-0.072399 0.07991,-0.090199 0.146894,-0.061799 0.08851,0.037399 0.119366,0.084599 0.127338,0.1947969 0.0039,0.054199 -0.0022,0.127598 -0.0135,0.1631974 -0.04863,0.1527976 -0.204037,0.4083536 -0.269725,0.443513 -0.03863,0.0206 -0.03724,0.0208 -0.07426,-0.006 z"
       id="path862"
       inkscape:connector-curvature="0" />
    <path
       style="fill:#000000;stroke-width:0.01681199"
       d="M 5.2566247,2.9981857 C 5.1595363,2.9901858 4.7056118,2.9337867 4.2479055,2.8737876 3.7901991,2.8137886 3.2626319,2.7455897 3.075534,2.72199 2.2085313,2.6129918 1.9346232,2.4906337 2.0126686,2.2470175 2.0363722,2.1730187 2.1005152,2.0824201 2.1466385,2.0576205 2.30616,1.9722219 2.6196808,2.0128212 3.5754265,2.2422176 4.66064,2.5027335 5.4755373,2.7454897 5.6716232,2.8666677 c 0.062223,0.038399 0.072603,0.088799 0.023718,0.1149982 -0.049005,0.0262 -0.2427848,0.0334 -0.4387145,0.016 z"
       id="path860"
       inkscape:connector-curvature="0" />
    <path
       style="fill:#000000;stroke-width:0.01681199"
       d="m 17.019413,3.0041856 c -0.06608,-0.065999 0.11202,-0.4815924 0.342206,-0.7984074 0.09057,-0.124598 0.151745,-0.1653974 0.248719,-0.1653974 0.08897,-10e-5 0.13424,0.0226 0.155154,0.077599 0.01978,0.051999 2.01e-4,0.092799 -0.148448,0.3090551 -0.271213,0.3945538 -0.53017,0.6446698 -0.597631,0.5772109 z"
       id="path858"
       inkscape:connector-curvature="0" />
    <path
       style="fill:#000000;stroke-width:0.01681199"
       d="m 13.70921,2.5467128 c -0.239557,-0.051999 -0.410667,-0.1157982 -0.475709,-0.1769972 -0.05405,-0.050999 -0.05843,-0.062599 -0.05843,-0.1555975 0,-0.1397978 0.02404,-0.1997969 0.08948,-0.2229365 0.02938,-0.01 0.182031,-0.0296 0.339223,-0.042599 0.457913,-0.037999 0.532118,-0.056399 0.624198,-0.1541976 C 14.379563,1.6331872 14.365469,1.4154707 14.18784,1.1742745 14.031594,0.96209785 13.2595,0.73792139 12.359689,0.64346288 12.063943,0.61246337 11.430504,0.6172633 11.186198,0.65146276 10.75191,0.71406177 10.497879,0.80106039 9.8210794,1.1199754 9.3604521,1.3369519 9.2540896,1.3694914 9.1216818,1.333832 9.0199015,1.3064324 8.921638,1.206034 8.921638,1.1293352 c 0,-0.13019794 0.2739275,-0.45721277 0.5339024,-0.63734992 0.3838383,-0.2659558 1.0472846,-0.46613264 1.8865826,-0.56921101 0.207342,-0.0253996 0.8229,-0.02119966 1.143656,0.0079999 0.778162,0.07039888 1.714187,0.29259537 2.100227,0.49839212 0.627579,0.33453471 0.888533,1.02616381 0.605924,1.60589461 -0.114178,0.2342363 -0.335912,0.4015136 -0.655088,0.4942322 -0.183247,0.053199 -0.619503,0.062199 -0.827632,0.016 z"
       id="path856"
       inkscape:connector-curvature="0" />
    <path
       style="fill:#000000;stroke-width:0.01681199"
       d="m 16.340002,2.3851154 c -0.02955,-0.0208 -0.03484,-0.036399 -0.02676,-0.079799 0.03346,-0.1795971 0.269373,-0.6719094 0.381131,-0.7953074 0.05944,-0.065599 0.08186,-0.078599 0.147922,-0.085999 0.106218,-0.012 0.185999,0.018 0.257267,0.096998 0.08068,0.089199 0.08267,0.1835971 0.0071,0.3348547 -0.09591,0.191997 -0.376959,0.4500929 -0.569751,0.5233317 -0.101572,0.038599 -0.148357,0.039999 -0.196869,0.006 z"
       id="path854"
       inkscape:connector-curvature="0" />
    <path
       style="fill:#000000;stroke-width:0.01681199"
       d="M 6.0299761,2.3327162 C 5.8039829,2.3115165 5.5749079,2.2717171 4.8783549,2.1327193 4.443765,2.0459207 3.8725778,1.9327225 3.6090498,1.8811233 2.7960716,1.7217258 2.5140789,1.6344072 2.4255579,1.5146691 2.3993823,1.4792697 2.3907404,1.4424703 2.3907404,1.3660715 c 0,-0.095199 0.0038,-0.1049984 0.060763,-0.1571976 0.089299,-0.081799 0.2079023,-0.1027983 0.4346291,-0.076999 0.1750412,0.02 0.2011906,0.0246 0.4287058,0.077599 0.7065525,0.1643974 2.3811234,0.7184087 2.8916621,0.9567849 0.1764452,0.082399 0.2075659,0.1103983 0.1674994,0.1503976 -0.026286,0.0262 -0.1656314,0.0328 -0.3440254,0.016 z"
       id="path852"
       inkscape:connector-curvature="0" />
    <path
       style="fill:#000000;stroke-width:0.01681199"
       d="m 11.774605,2.152319 c -0.05418,-0.012 -0.113728,-0.037799 -0.133962,-0.057999 -0.06239,-0.062399 -0.01484,-0.086799 0.2006,-0.1025984 0.274632,-0.0204 0.350554,-0.062599 0.434202,-0.2412762 0.07014,-0.1497976 0.196295,-0.2167366 0.221262,-0.1171982 0.02311,0.091999 -0.0909,0.4169534 -0.173639,0.4947722 -0.03839,0.036199 -0.0576,0.039399 -0.246281,0.042599 -0.118355,0.002 -0.245772,-0.006 -0.302182,-0.018 z"
       id="path850"
       inkscape:connector-curvature="0" />
    <path
       style="fill:#000000;stroke-width:0.01681199"
       d="m 10.774582,2.0775202 c -0.09483,-0.033999 -0.181059,-0.1011984 -0.158543,-0.123798 0.0075,-0.008 0.09946,-0.0206 0.204342,-0.029 0.24311,-0.02 0.255642,-0.028599 0.354064,-0.253796 0.05168,-0.1183981 0.08751,-0.1783971 0.11308,-0.189797 0.09249,-0.041199 0.113306,0.077799 0.0557,0.317955 -0.04186,0.1745973 -0.07836,0.2501561 -0.133292,0.2758757 -0.02414,0.012 -0.111988,0.0236 -0.195206,0.0274 -0.118739,0.006 -0.170432,0 -0.240149,-0.025 z"
       id="path848"
       inkscape:connector-curvature="0" />
    <path
       style="fill:#000000;stroke-width:0.01681199"
       d="M 9.8547035,1.8813233 C 9.579268,1.8207243 9.5043462,1.776725 9.6067266,1.7359256 c 0.033811,-0.014 0.090607,-0.014 0.2113876,0.00142 0.2113988,0.0254 0.2396138,0.012 0.4031358,-0.191997 0.13143,-0.1639974 0.196983,-0.2113566 0.241527,-0.1743972 0.05603,0.046399 -0.02827,0.3674542 -0.127848,0.4867323 -0.04485,0.053799 -0.05303,0.056599 -0.171197,0.060399 -0.08254,0.002 -0.1860289,-0.01 -0.3090271,-0.036599 z"
       id="path846"
       inkscape:connector-curvature="0" />
    <path
       style="fill:#000000;stroke-width:0.01681199"
       d="m 17.474737,1.7369256 c -0.0379,-0.022 -0.03944,-0.1469977 -0.0036,-0.2904354 0.03741,-0.1493976 0.211253,-0.49103225 0.303182,-0.5956306 0.198441,-0.22577643 0.465596,-0.21997652 0.527919,0.0119998 0.018,0.066999 0.0162,0.0755988 -0.02712,0.1333979 -0.08976,0.1193981 -0.443816,0.504952 -0.580003,0.63147 -0.137874,0.127998 -0.165447,0.1417978 -0.220415,0.1097983 z"
       id="path844"
       inkscape:connector-curvature="0" />
    <path
       style="fill:#000000;stroke-width:0.01681199"
       d="m 15.851822,1.6615268 c -0.07633,-0.053399 -0.09606,-0.1195981 -0.09512,-0.318415 0.0019,-0.40935351 0.178901,-0.81390711 0.41533,-0.94950497 0.138409,-0.0793987 0.239013,-0.063999 0.270675,0.0415993 0.01466,0.0487992 -0.01832,0.15719752 -0.174027,0.57161097 -0.15094,0.4017337 -0.237954,0.6034505 -0.280689,0.6506698 -0.03364,0.037199 -0.08656,0.038799 -0.136168,0.004 z"
       id="path842"
       inkscape:connector-curvature="0" />
    <path
       style="fill:#000000;stroke-width:0.01681199"
       d="M 6.4078189,1.645527 C 6.3151184,1.6335272 5.9406313,1.5619284 5.5756257,1.4879295 5.2106201,1.4139307 4.7190614,1.3193322 4.4832732,1.2779129 4.0444089,1.2007141 3.809221,1.142715 3.6911645,1.0825159 3.5821142,1.0269168 3.2009852,0.78090071 3.1494222,0.73288147 c -0.070419,-0.065599 -0.099636,-0.1331979 -0.098656,-0.22857639 0.0011,-0.10659831 0.02035,-0.15699752 0.090363,-0.23681626 0.072843,-0.0829987 0.1391638,-0.10859828 0.2805927,-0.10859828 0.2182336,0 0.5255307,0.0729988 1.0615523,0.25247601 1.0226306,0.34225459 2.3312631,0.94318505 2.4627654,1.13094215 0.032865,0.046999 0.032112,0.055599 -0.00822,0.095999 -0.029308,0.0294 -0.054665,0.033399 -0.1975409,0.031999 -0.090155,-9.6e-4 -0.2397628,-0.012 -0.3324638,-0.0246 z"
       id="path840"
       inkscape:connector-curvature="0" />
    <path
       style="fill:#000000;stroke-width:0.01681199"
       d="m 16.440641,0.99967725 c -0.06978,-0.11179823 0.05388,-0.31077509 0.292044,-0.47007257 0.167122,-0.11179823 0.28136,-0.1453977 0.408107,-0.1203981 0.101055,0.0199997 0.158652,0.0671989 0.141536,0.11619817 -0.0182,0.0519992 -0.112708,0.1387978 -0.240499,0.22077651 -0.164651,0.10559833 -0.512686,0.28697544 -0.550626,0.28697544 -0.01634,0 -0.03909,-0.016 -0.05056,-0.0333994 z"
       id="path838"
       inkscape:connector-curvature="0" />
    <path
       style="fill:#000000;stroke-width:0.01681199"
       d="M 16.069954,0.10737136 C 15.943016,0.08937164 15.864989,0.00697294 15.864989,-0.1104052 c 0,-0.0703989 0.02458,-0.11179824 0.08456,-0.14279775 0.106118,-0.0547991 0.831514,-0.20641673 1.024435,-0.21401661 0.141183,-0.006 0.149883,0.0221996 0.04281,0.13659784 -0.09853,0.10539833 -0.278595,0.23007636 -0.471646,0.32669483 -0.210163,0.10519834 -0.3249,0.13199792 -0.475196,0.11139824 z"
       id="path836"
       inkscape:connector-curvature="0" />
    <path
       style="fill:#000000;stroke-width:0.01681199"
       d="M 17.485737,0.03437251 C 17.38695,0.01037289 17.300876,-0.04522623 17.285,-0.09522544 c -0.02654,-0.08359868 0.02801,-0.22759641 0.235035,-0.6203302 l 0.140178,-0.2659158 -0.01582,-0.27463566 c -0.0087,-0.1509976 -0.01732,-0.4751325 -0.01918,-0.7201686 l -0.0034,-0.445513 0.04806,-0.1343978 c 0.02643,-0.073999 0.08998,-0.2200566 0.141224,-0.3246349 0.115418,-0.2355563 0.230035,-0.3635343 0.56893,-0.63527 l 0.239084,-0.1917969 h 0.571533 0.571533 l -0.0092,-0.2661158 c -0.005,-0.1463977 -0.004,-0.2939154 0.0024,-0.3278949 0.02524,-0.1345978 0.150318,-0.1697973 0.27707,-0.077999 0.154778,0.1121982 0.167157,0.2005168 0.06134,0.4379731 -0.138358,0.310415 -0.136778,0.4446929 0.0056,0.4855523 0.103258,0.029599 0.140998,-0.051399 0.194977,-0.4184134 0.03152,-0.2143166 0.05332,-0.253436 0.141238,-0.253436 0.07672,0 0.116698,0.037399 0.137157,0.127998 0.02752,0.121998 -0.013,0.2441561 -0.184737,0.5569312 -0.03944,0.071799 -0.0626,0.1329979 -0.05642,0.1489976 0.0058,0.014 0.0405,0.040799 0.07722,0.057199 0.08604,0.038599 0.126458,0.0266 0.282048,-0.082599 0.145177,-0.1019984 0.195477,-0.1085983 0.25823,-0.033999 0.0878,0.1043983 0.0716,0.2052167 -0.05106,0.3182749 -0.152397,0.1403978 -0.366012,0.1997969 -0.609734,0.1691974 -0.0774,-0.01 -0.270288,-0.051599 -0.428633,-0.092999 -0.158338,-0.041399 -0.362225,-0.083599 -0.453065,-0.093799 -0.448075,-0.049999 -0.853019,0.1025984 -1.11632,0.4208334 -0.174558,0.2109166 -0.256742,0.437093 -0.256326,0.7054288 7.2e-4,0.4654326 0.235092,0.8346268 0.698237,1.09994262 0.273817,0.15679752 0.488284,0.22927638 0.801903,0.27079572 0.09318,0.0119998 0.180817,0.0767988 0.180817,0.13319789 0,0.0205997 -0.017,0.0535992 -0.038,0.0733988 -0.221209,0.20781672 -1.786524,0.48185239 -2.191203,0.38361394 z"
       id="path834"
       inkscape:connector-curvature="0" />
    <path
       style="fill:#000000;stroke-width:0.01681199"
       d="m 16.222665,-0.71559564 c -0.08122,-0.0199997 -0.130706,-0.0579991 -0.164217,-0.12859797 -0.02665,-0.0561991 -0.02736,-0.0683989 -0.0062,-0.10619832 0.03893,-0.0693989 0.189007,-0.13139797 0.408526,-0.16899737 0.431484,-0.073799 0.658236,-0.0276 0.645039,0.13099797 -0.0044,0.0525992 -0.0169,0.0699989 -0.08197,0.11339821 -0.174123,0.11639816 -0.613866,0.20381678 -0.80119,0.15939748 z"
       id="path832"
       inkscape:connector-curvature="0" />
    <path
       style="fill:#000000;stroke-width:0.01681199"
       d="M 19.604368,-0.79239442 C 19.017713,-0.92119239 18.665075,-1.391765 18.761523,-1.9170366 c 0.0717,-0.3904539 0.305931,-0.6420099 0.733774,-0.7880276 0.187838,-0.063999 0.472259,-0.081399 0.638538,-0.038599 0.219411,0.056199 0.450209,0.2397562 0.613707,0.4878323 0.146697,0.2225965 0.168357,0.2960553 0.168957,0.5730509 l 5.04e-4,0.2353563 -0.06314,0.1321979 c -0.08878,0.1859971 -0.217189,0.3066952 -0.440279,0.4140335 -0.09298,0.0447993 -0.218727,0.0933985 -0.27942,0.10799829 -0.132538,0.0319995 -0.38609,0.0323995 -0.529793,8.1999e-4 z"
       id="path830"
       inkscape:connector-curvature="0" />
    <path
       style="fill:#000000;stroke-width:0.01681199"
       d="m 20.06794,-1.3381858 c 0.08972,-0.045799 0.245903,-0.1933969 0.297176,-0.2808756 0.0398,-0.067999 0.04294,-0.086399 0.03488,-0.2039567 -0.012,-0.1759973 -0.04046,-0.2604559 -0.116758,-0.3471345 -0.177917,-0.2021369 -0.636638,-0.1801972 -0.87773,0.042199 -0.113758,0.1047983 -0.165637,0.2229365 -0.164217,0.3736741 9.73e-4,0.1029984 0.0096,0.1381978 0.0568,0.2310563 0.04708,0.092599 0.06888,0.1165982 0.141417,0.1553976 0.04716,0.0254 0.126538,0.053199 0.176398,0.062199 0.133637,0.0238 0.375978,0.006 0.452048,-0.0324 z"
       id="path828"
       inkscape:connector-curvature="0" />
    <path
       style="fill:#000000;stroke-width:0.01681199"
       d="m 14.231988,-1.1859882 c -0.04284,-0.008 -0.09729,-0.0272 -0.121004,-0.042599 -0.06264,-0.040999 -0.14575,-0.1787972 -0.14575,-0.2415562 0,-0.046199 0.01222,-0.061199 0.09167,-0.1119982 0.112455,-0.071999 0.21065,-0.098398 0.50899,-0.1369979 0.340753,-0.044199 1.76322,-0.044199 2.070963,-1.2e-4 0.224158,0.032199 0.320914,0.062599 0.320914,0.1007984 0,0.035199 -0.06763,0.056599 -0.302615,0.095798 -0.115583,0.02 -0.387937,0.072799 -0.605232,0.1189981 -0.485926,0.1033984 -0.780526,0.1599975 -1.000313,0.192397 -0.201881,0.029799 -0.708776,0.045399 -0.817621,0.0252 z"
       id="path826"
       inkscape:connector-curvature="0" />
    <path
       style="fill:#000000;stroke-width:0.01681199"
       d="m 14.147621,-2.0665143 c -0.182859,-0.051999 -0.209349,-0.1003984 -0.184637,-0.3383546 0.02076,-0.1997969 0.04075,-0.2336363 0.179527,-0.3035552 l 0.100121,-0.050399 0.462329,0.00138 c 0.351609,0.00104 0.544221,0.01 0.804279,0.037999 1.005422,0.1077983 1.671321,0.256656 1.712654,0.382774 0.0159,0.048399 -0.177537,0.077399 -0.71805,0.1075983 -0.413347,0.023 -0.835892,0.060999 -1.042343,0.093799 -0.395032,0.062799 -0.535402,0.076199 -0.874224,0.083399 -0.268616,0.006 -0.381543,0.0019 -0.439657,-0.014 z"
       id="path824"
       inkscape:connector-curvature="0" />
    <path
       style="fill:#000000;stroke-width:0.01681199"
       d="m 17.294008,-2.6485651 c -0.05086,-0.016 -0.194599,-0.067999 -0.319428,-0.1149982 -0.396435,-0.1491976 -0.72884,-0.2324563 -1.529891,-0.3829939 -0.586199,-0.1101983 -0.816896,-0.1645974 -0.874223,-0.2066168 -0.02312,-0.016 -0.05261,-0.060599 -0.06555,-0.097198 -0.05252,-0.1485977 0.03247,-0.2880155 0.196965,-0.3232949 0.231226,-0.049599 0.787298,-0.006 1.052703,0.083399 0.178461,0.059799 0.615843,0.2687557 0.875356,0.4182134 0.425658,0.2451761 0.849005,0.5513513 0.849005,0.6140703 0,0.0222 -0.03779,0.043399 -0.07283,0.040599 -0.0108,-8.4e-4 -0.06125,-0.014 -0.112106,-0.031 z"
       id="path822"
       inkscape:connector-curvature="0" />
    <path
       style="fill:#000000;stroke-width:0.01681199"
       d="m 17.616254,-3.2468356 c -0.03081,-0.014 -0.141484,-0.081199 -0.245934,-0.1507976 -0.304491,-0.2027768 -0.485598,-0.2758757 -1.104626,-0.445913 -0.87275,-0.2397162 -1.05609,-0.3253149 -1.05631,-0.4931122 -1.01e-4,-0.071399 0.09059,-0.1529976 0.211258,-0.190197 0.07866,-0.0242 0.15114,-0.0304 0.343475,-0.029 0.212385,0.00148 0.262755,0.008 0.391187,0.046199 0.485455,0.1467977 1.131109,0.569831 1.444854,0.9468251 0.115562,0.1387978 0.181397,0.250476 0.181397,0.3074951 0,0.0276 -0.01064,0.0342 -0.05464,0.0336 -0.03005,-3.6e-4 -0.07985,-0.012 -0.110662,-0.025 z"
       id="path820"
       inkscape:connector-curvature="0" />
    <path
       style="fill:#000000;stroke-width:0.01681199"
       d="m 18.117795,-3.5858303 c -0.03236,-0.0246 -0.160973,-0.1439977 -0.285803,-0.2651358 -0.233579,-0.2267164 -0.357411,-0.3301548 -0.652934,-0.5454314 -0.09398,-0.068399 -0.209426,-0.1651974 -0.256559,-0.2150766 -0.07272,-0.076999 -0.08406,-0.097598 -0.07489,-0.1361978 0.02442,-0.1027984 0.144807,-0.2059168 0.282482,-0.2418162 0.09847,-0.0256 0.185271,-0.006 0.357254,0.081799 0.2443,0.1243981 0.426864,0.2833155 0.531754,0.4629127 0.169497,0.2902354 0.276809,0.7227486 0.213682,0.8613064 -0.02452,0.053799 -0.04168,0.053399 -0.114978,-0.002 z"
       id="path818"
       inkscape:connector-curvature="0" />
    <path
       style="fill:#000000;stroke-width:0.01681199"
       d="m 18.548864,-3.8982653 c -0.0198,-0.014 -0.0349,-0.061799 -0.04656,-0.1459977 -0.02062,-0.1487977 -0.05978,-0.2301964 -0.236716,-0.4923122 -0.140278,-0.2077968 -0.171277,-0.2780557 -0.155358,-0.3519945 0.0142,-0.065799 0.04962,-0.086999 0.142058,-0.084799 0.158458,0.004 0.386624,0.1619974 0.475307,0.3297947 0.123758,0.2342563 0.161757,0.5361716 0.0862,0.6851292 -0.03648,0.071999 -0.198597,0.1087983 -0.264956,0.060199 z"
       id="path816"
       inkscape:connector-curvature="0" />
    <path
       style="fill:#000000;stroke-width:0.01681199"
       d="m 19.371477,-3.9864639 c -0.06542,-0.070599 -0.175077,-0.2972953 -0.203882,-0.4214734 -0.04342,-0.187197 -0.0054,-0.2927354 0.105258,-0.2927354 0.08836,0 0.148538,0.040799 0.191917,0.129798 0.03388,0.069599 0.03916,0.1059983 0.03954,0.2736557 5.38e-4,0.2288764 -0.0142,0.312575 -0.05928,0.3367146 -0.02702,0.014 -0.04048,0.01 -0.07358,-0.026 z"
       id="path4520"
       inkscape:connector-curvature="0" />
  </g>
</svg>
