<?xml version="1.0" encoding="UTF-8" standalone="no"?>
<!-- Created with Inkscape (http://www.inkscape.org/) -->

<svg
   xmlns:dc="http://purl.org/dc/elements/1.1/"
   xmlns:cc="http://creativecommons.org/ns#"
   xmlns:rdf="http://www.w3.org/1999/02/22-rdf-syntax-ns#"
   xmlns:svg="http://www.w3.org/2000/svg"
   xmlns="http://www.w3.org/2000/svg"
   xmlns:sodipodi="http://sodipodi.sourceforge.net/DTD/sodipodi-0.dtd"
   xmlns:inkscape="http://www.inkscape.org/namespaces/inkscape"
   width="108.14964mm"
   height="9.5250597mm"
   viewBox="0 0 108.14964 9.5250597"
   version="1.1"
   id="svg864"
   inkscape:version="0.92.3 (2405546, 2018-03-11)"
   sodipodi:docname="discovery.svg">
  <defs
     id="defs858" />
  <sodipodi:namedview
     id="base"
     pagecolor="#ffffff"
     bordercolor="#666666"
     borderopacity="1.0"
     inkscape:pageopacity="0.0"
     inkscape:pageshadow="2"
     inkscape:zoom="2.8"
     inkscape:cx="32.840273"
     inkscape:cy="34.923309"
     inkscape:document-units="mm"
     inkscape:current-layer="layer2"
     showgrid="false"
     inkscape:measure-start="-948.571,1648.57"
     inkscape:measure-end="-851.429,1662.86"
     inkscape:window-width="3200"
     inkscape:window-height="1709"
     inkscape:window-x="0"
     inkscape:window-y="33"
     inkscape:window-maximized="1"
     fit-margin-top="0"
     fit-margin-left="0"
     fit-margin-right="0"
     fit-margin-bottom="0" />
  <metadata
     id="metadata861">
    <rdf:RDF>
      <cc:Work
         rdf:about="">
        <dc:format>image/svg+xml</dc:format>
        <dc:type
           rdf:resource="http://purl.org/dc/dcmitype/StillImage" />
        <dc:title></dc:title>
      </cc:Work>
    </rdf:RDF>
  </metadata>
  <g
     inkscape:label="Layer 1"
     inkscape:groupmode="layer"
     id="layer1"
     transform="translate(-0.55035399,-228.43081)" />
  <g
     inkscape:groupmode="layer"
     id="layer2"
     inkscape:label="SilkS">
    <path
       style="fill:#000000;stroke-width:0.09407348"
       d="M 18.62657,9.3839354 V 9.2428243 h 0.282221 0.28222 V 9.1017132 8.9606047 H 18.76768 18.34435 V 8.8194936 8.6783825 H 18.20324 18.06213 V 8.1139434 7.5495016 h 0.28222 0.28222 v 0.5644418 0.5644391 h 0.282221 0.28222 V 8.1139434 7.5495016 h 0.28222 0.282221 V 8.396163 9.2428243 h -0.14111 -0.141111 v 0.1411111 0.1411085 h -0.42333 -0.423331 z"
       id="path6630"
       inkscape:connector-curvature="0" />
    <path
       style="fill:#000000;stroke-width:0.09407348"
       d="M 0,6.9850598 V 7.2672803 H 0.56444089 0.84666132 1.1288818 V 7.9728314 8.6783825 H 0.84666132 0.56444089 V 7.9728314 7.3571278 H 0 V 7.9728314 8.9606029 H 0.7055511 1.4111022 V 8.8194927 8.6783825 H 1.5522124 1.6933226 V 7.9728314 7.2672803 H 1.5522124 1.4111022 V 7.1261701 6.9850598 H 0.7055511 Z"
       id="path6628"
       inkscape:connector-curvature="0" />
    <path
       style="fill:#000000;stroke-width:0.09407348"
       d="M 2.5400046,8.8194936 V 8.6783825 H 2.6811149 2.8222252 V 8.2550518 7.8317212 H 2.6811149 2.5400046 V 7.6906127 7.5495016 H 2.9633352 3.3866659 V 8.1139434 8.6783825 H 3.5277762 3.6688865 V 8.8194936 8.9606047 H 3.1044456 2.5400046 Z"
       id="path6624"
       inkscape:connector-curvature="0" />
    <path
       style="fill:#000000;stroke-width:0.09407348"
       d="M 4.5155479,8.8194936 V 8.6783825 h 0.5644407 0.564441 V 8.537274 8.396163 H 5.2210989 4.7977683 V 8.2550518 8.1139434 H 4.6566579 4.5155479 V 7.9728322 7.8317212 h 0.14111 0.1411104 V 7.6906127 7.5495016 h 0.705551 0.7055515 V 7.6906127 7.8317212 H 5.6444296 5.0799886 v 0.141111 0.1411112 H 5.5033193 5.9266499 V 8.2550518 8.396163 H 6.0677604 6.2088708 V 8.537274 8.6783825 H 6.0677604 5.9266499 v 0.1411111 0.1411111 h -0.705551 -0.705551 z"
       id="path6622"
       inkscape:connector-curvature="0" />
    <path
       style="fill:#000000;stroke-width:0.09407348"
       d="M 7.0555318,8.8194936 V 8.6783825 H 6.9144213 6.7733115 V 8.2550518 7.8317212 H 6.9144213 7.0555318 V 7.6906127 7.5495016 H 7.7610829 8.466634 V 7.6906127 7.8317212 H 7.9021933 7.3377521 V 8.2550518 8.6783825 H 7.9021933 8.466634 V 8.8194936 8.9606047 H 7.7610829 7.0555318 Z"
       id="path6620"
       inkscape:connector-curvature="0" />
    <path
       style="fill:#000000;stroke-width:0.09407348"
       d="M 9.3132748,7.5495007 V 7.6906109 7.8317212 H 9.5954951 9.8777154 10.159936 V 8.2550518 8.6783825 H 9.8777154 9.5954951 V 8.2550518 7.9215687 H 9.0310544 V 8.2550518 8.6783825 H 9.1721643 9.3132748 V 8.8194927 8.9606029 H 9.8777154 10.442157 V 8.8194927 8.6783825 h 0.14111 0.14111 V 8.2550518 7.8317212 h -0.14111 -0.14111 V 7.6906109 7.5495007 H 9.8777154 Z"
       id="path6618"
       inkscape:connector-curvature="0" />
    <path
       style="fill:#000000;stroke-width:0.09407348"
       d="M 11.85328,8.8194936 V 8.6783825 h -0.141111 -0.14111 V 8.537274 8.396163 h -0.14111 -0.141111 V 7.9728322 7.5495016 h 0.282221 0.282221 V 7.9728322 8.396163 h 0.28222 0.28222 V 7.9728322 7.5495016 h 0.282221 0.28222 V 7.9728322 8.396163 h -0.14111 -0.14111 V 8.537274 8.6783825 H 12.558831 12.41772 V 8.8194936 8.9606047 H 12.1355 11.85328 Z"
       id="path6614"
       inkscape:connector-curvature="0" />
    <path
       style="fill:#000000;stroke-width:0.09407348"
       d="m 13.828802,7.5495007 v 0.1411102 0.1411103 h -0.14111 -0.141111 v 0.4233306 0.4233307 h 0.141111 0.14111 v 0.1411102 0.1411102 h 0.564441 0.564441 V 8.8194927 8.6783825 h -0.423331 -0.333622 -0.08971 V 8.5372723 8.396162 8.1139416 8.1114612 7.9728314 7.8317212 h 0.282221 0.28222 V 7.9728314 8.1139416 H 14.393242 14.20073 V 8.396162 h 0.474732 0.564441 V 8.1139416 7.8317212 h -0.14111 -0.14111 V 7.6906109 7.5495007 h -0.564441 z"
       id="path6612"
       inkscape:connector-curvature="0" />
    <path
       style="fill:#000000;stroke-width:0.09407348"
       d="M 16.086586,8.396163 V 7.8317212 h 0.141111 0.14111 V 7.6906127 7.5495016 h 0.56444 0.564441 v 0.1411111 0.1411085 h -0.28222 -0.282221 v 0.141111 0.1411112 h -0.14111 -0.14111 V 8.537274 8.9606047 h -0.28222 -0.282221 z"
       id="path6608"
       inkscape:connector-curvature="0" />
    <path
       style="fill:#000000;stroke-width:0.09407348"
       d="M 22.859877,8.8194936 V 8.6783825 h 0.14111 0.14111 V 8.1139434 7.5495016 h -0.14111 -0.14111 V 7.4083905 7.2672821 h 0.14111 0.14111 V 7.1261709 6.9850598 h 0.282221 0.28222 v 0.8466614 0.8466613 h 0.14111 0.141111 v 0.1411111 0.1411111 h -0.564441 -0.564441 z"
       id="path6606"
       inkscape:connector-curvature="0" />
    <path
       style="fill:#000000;stroke-width:0.09407348"
       d="m 25.117619,6.9850598 v 0.1411103 0.1411102 h -0.14111 -0.14111 v 0.2822204 0.2822205 h 0.14111 0.14111 v 0.1411102 0.1411102 h -0.14111 -0.14111 V 8.396162 8.6783825 h 0.14111 0.14111 v 0.1411102 0.1411102 h 0.564442 0.56444 V 8.8194927 8.6783825 h 0.141111 0.14111 V 8.396162 8.1139416 h -0.282221 -0.281256 v 0.1613672 h -9.8e-4 V 8.396162 8.6783825 H 25.682061 25.39984 V 8.396162 8.1139416 h 0.282221 0.193337 V 7.8317212 H 25.682061 25.39984 V 7.5495007 7.2672803 h 0.282221 0.28222 v 0.2822204 0.158749 h 9.8e-4 v 0.3159822 h 0.281256 V 7.9728314 7.8317212 h 0.141111 0.14111 V 7.5495007 7.2672803 H 26.387612 26.246501 V 7.1261701 6.9850598 h -0.56444 z"
       id="path6604"
       inkscape:connector-curvature="0" />
    <path
       style="fill:#000000;stroke-width:0.09407348"
       d="m 27.375383,6.9850598 v 0.1411103 0.1411102 h -0.14111 -0.14111 v 0.7055511 0.6158414 h 0.56444 V 8.5372723 8.3987803 8.396162 7.8317212 7.5495007 7.2672803 h 0.282221 0.282221 v 0.1411102 0.1411102 h -0.141111 -0.14111 v 0.1411102 0.1411103 h -0.14111 -0.0514 V 8.396162 h 0.0514 0.14111 V 8.2550518 8.1139416 h 0.14111 0.141111 V 8.396162 8.6783825 h -0.282221 -0.27974 -0.0025 -0.28222 v 0.1411102 0.1411102 h 0.564441 0.564441 V 8.8194927 8.6783825 h 0.14111 0.14111 V 7.9728314 7.2672803 h -0.141111 -0.14111 V 7.1261701 6.9850598 h -0.564441 z"
       id="path6598"
       inkscape:connector-curvature="0" />
    <path
       style="fill:#000000;stroke-width:0.09407348"
       d="m 20.602114,7.9728322 v -0.141111 h 0.70555 0.705551 v 0.141111 0.1411112 h -0.705551 -0.70555 z"
       id="path6592"
       inkscape:connector-curvature="0" />
    <path
       style="fill:#000000;stroke-width:0.09407348"
       d="M 2.8222252,7.1261709 V 6.9850598 H 3.1044456 3.3866659 V 7.1261709 7.2672821 H 3.1044456 2.8222252 Z"
       id="path6502"
       inkscape:connector-curvature="0" />
    <path
       id="path6704"
       d="M 3.6959274,7.1261709 V 6.9850598 H 12.85144 22.006954 V 7.1261709 7.2672821 H 12.85144 3.6959274 Z"
       style="fill:#000000;stroke-width:0.5358144"
       inkscape:connector-curvature="0" />
    <path
       inkscape:connector-curvature="0"
       style="fill:#000000;stroke-width:0.52368528"
       d="M 2.0381206e-5,9.3839488 V 9.2428376 H 8.7457212 17.491423 v 0.1411112 0.141111 H 8.7457212 2.0381206e-5 Z"
       id="path6706" />
    <path
       id="path6708"
       d="M 20.602125,9.3839488 V 9.2428376 h 4.11879 4.118807 v 0.1411112 0.141111 h -4.118807 -4.11879 z"
       style="fill:#000000;stroke-width:0.35938296"
       inkscape:connector-curvature="0" />
  </g>
</svg>
