%TF.GenerationSoftware,KiCad,Pcbnew,5.0.0-fee4fd1~66~ubuntu18.04.1*%
%TF.CreationDate,2018-09-09T22:09:21+02:00*%
%TF.ProjectId,z180,7A3138302E6B696361645F7063620000,0.1*%
%TF.SameCoordinates,Original*%
%TF.FileFunction,Soldermask,Bot*%
%TF.FilePolarity,Negative*%
%FSLAX46Y46*%
G04 Gerber Fmt 4.6, Leading zero omitted, Abs format (unit mm)*
G04 Created by KiCad (PCBNEW 5.0.0-fee4fd1~66~ubuntu18.04.1) date Sun Sep  9 22:09:21 2018*
%MOMM*%
%LPD*%
G01*
G04 APERTURE LIST*
%ADD10C,1.551600*%
%ADD11O,2.001600X2.001600*%
%ADD12R,1.001600X1.001600*%
%ADD13O,1.801600X1.801600*%
%ADD14R,1.801600X1.801600*%
%ADD15C,2.301600*%
%ADD16C,0.100000*%
%ADD17C,1.526600*%
%ADD18C,1.524000*%
%ADD19R,1.524000X1.524000*%
%ADD20O,1.701600X1.701600*%
%ADD21R,1.701600X1.701600*%
%ADD22C,0.801600*%
%ADD23C,4.501600*%
%ADD24C,2.101600*%
%ADD25C,1.701600*%
%ADD26C,1.301600*%
%ADD27R,1.301600X1.301600*%
%ADD28C,1.501600*%
%ADD29R,1.101600X1.101600*%
%ADD30C,1.601600*%
G04 APERTURE END LIST*
D10*
X117917500Y-61936000D03*
X117917500Y-56936000D03*
D11*
X120617500Y-62936000D03*
X120617500Y-55936000D03*
D12*
X57048000Y-53252500D03*
X58388000Y-53252500D03*
X54388000Y-53252500D03*
X55728000Y-53252500D03*
X57048000Y-50252500D03*
X55728000Y-50252500D03*
X58388000Y-50252500D03*
X54388000Y-50252500D03*
X57848500Y-63652000D03*
X57848500Y-64992000D03*
X57848500Y-60992000D03*
X57848500Y-62332000D03*
X60848500Y-63652000D03*
X60848500Y-62332000D03*
X60848500Y-64992000D03*
X60848500Y-60992000D03*
D13*
X44196000Y-64770000D03*
X41656000Y-64770000D03*
X44196000Y-62230000D03*
X41656000Y-62230000D03*
X44196000Y-59690000D03*
X41656000Y-59690000D03*
X44196000Y-57150000D03*
D14*
X41656000Y-57150000D03*
D15*
X41656000Y-68580000D03*
D16*
G36*
X45642226Y-53303490D02*
X45668225Y-53307346D01*
X45693720Y-53313732D01*
X45718467Y-53322587D01*
X45742227Y-53333824D01*
X45764771Y-53347337D01*
X45785881Y-53362993D01*
X45805356Y-53380644D01*
X45823007Y-53400119D01*
X45838663Y-53421229D01*
X45852176Y-53443773D01*
X45863413Y-53467533D01*
X45872268Y-53492280D01*
X45878654Y-53517775D01*
X45882510Y-53543774D01*
X45883800Y-53570025D01*
X45883800Y-54560975D01*
X45882510Y-54587226D01*
X45878654Y-54613225D01*
X45872268Y-54638720D01*
X45863413Y-54663467D01*
X45852176Y-54687227D01*
X45838663Y-54709771D01*
X45823007Y-54730881D01*
X45805356Y-54750356D01*
X45785881Y-54768007D01*
X45764771Y-54783663D01*
X45742227Y-54797176D01*
X45718467Y-54808413D01*
X45693720Y-54817268D01*
X45668225Y-54823654D01*
X45642226Y-54827510D01*
X45615975Y-54828800D01*
X44300025Y-54828800D01*
X44273774Y-54827510D01*
X44247775Y-54823654D01*
X44222280Y-54817268D01*
X44197533Y-54808413D01*
X44173773Y-54797176D01*
X44151229Y-54783663D01*
X44130119Y-54768007D01*
X44110644Y-54750356D01*
X44092993Y-54730881D01*
X44077337Y-54709771D01*
X44063824Y-54687227D01*
X44052587Y-54663467D01*
X44043732Y-54638720D01*
X44037346Y-54613225D01*
X44033490Y-54587226D01*
X44032200Y-54560975D01*
X44032200Y-53570025D01*
X44033490Y-53543774D01*
X44037346Y-53517775D01*
X44043732Y-53492280D01*
X44052587Y-53467533D01*
X44063824Y-53443773D01*
X44077337Y-53421229D01*
X44092993Y-53400119D01*
X44110644Y-53380644D01*
X44130119Y-53362993D01*
X44151229Y-53347337D01*
X44173773Y-53333824D01*
X44197533Y-53322587D01*
X44222280Y-53313732D01*
X44247775Y-53307346D01*
X44273774Y-53303490D01*
X44300025Y-53302200D01*
X45615975Y-53302200D01*
X45642226Y-53303490D01*
X45642226Y-53303490D01*
G37*
D17*
X44958000Y-54065500D03*
D16*
G36*
X45642226Y-50328490D02*
X45668225Y-50332346D01*
X45693720Y-50338732D01*
X45718467Y-50347587D01*
X45742227Y-50358824D01*
X45764771Y-50372337D01*
X45785881Y-50387993D01*
X45805356Y-50405644D01*
X45823007Y-50425119D01*
X45838663Y-50446229D01*
X45852176Y-50468773D01*
X45863413Y-50492533D01*
X45872268Y-50517280D01*
X45878654Y-50542775D01*
X45882510Y-50568774D01*
X45883800Y-50595025D01*
X45883800Y-51585975D01*
X45882510Y-51612226D01*
X45878654Y-51638225D01*
X45872268Y-51663720D01*
X45863413Y-51688467D01*
X45852176Y-51712227D01*
X45838663Y-51734771D01*
X45823007Y-51755881D01*
X45805356Y-51775356D01*
X45785881Y-51793007D01*
X45764771Y-51808663D01*
X45742227Y-51822176D01*
X45718467Y-51833413D01*
X45693720Y-51842268D01*
X45668225Y-51848654D01*
X45642226Y-51852510D01*
X45615975Y-51853800D01*
X44300025Y-51853800D01*
X44273774Y-51852510D01*
X44247775Y-51848654D01*
X44222280Y-51842268D01*
X44197533Y-51833413D01*
X44173773Y-51822176D01*
X44151229Y-51808663D01*
X44130119Y-51793007D01*
X44110644Y-51775356D01*
X44092993Y-51755881D01*
X44077337Y-51734771D01*
X44063824Y-51712227D01*
X44052587Y-51688467D01*
X44043732Y-51663720D01*
X44037346Y-51638225D01*
X44033490Y-51612226D01*
X44032200Y-51585975D01*
X44032200Y-50595025D01*
X44033490Y-50568774D01*
X44037346Y-50542775D01*
X44043732Y-50517280D01*
X44052587Y-50492533D01*
X44063824Y-50468773D01*
X44077337Y-50446229D01*
X44092993Y-50425119D01*
X44110644Y-50405644D01*
X44130119Y-50387993D01*
X44151229Y-50372337D01*
X44173773Y-50358824D01*
X44197533Y-50347587D01*
X44222280Y-50338732D01*
X44247775Y-50332346D01*
X44273774Y-50328490D01*
X44300025Y-50327200D01*
X45615975Y-50327200D01*
X45642226Y-50328490D01*
X45642226Y-50328490D01*
G37*
D17*
X44958000Y-51090500D03*
D13*
X44196000Y-38100000D03*
X44196000Y-35560000D03*
D14*
X44196000Y-33020000D03*
D13*
X117856000Y-24892000D03*
X120396000Y-24892000D03*
X117856000Y-27432000D03*
X120396000Y-27432000D03*
X117856000Y-29972000D03*
X120396000Y-29972000D03*
X117856000Y-32512000D03*
X120396000Y-32512000D03*
X117856000Y-35052000D03*
X120396000Y-35052000D03*
X117856000Y-37592000D03*
X120396000Y-37592000D03*
X117856000Y-40132000D03*
X120396000Y-40132000D03*
X117856000Y-42672000D03*
D14*
X120396000Y-42672000D03*
D13*
X46228000Y-20828000D03*
X48768000Y-20828000D03*
X51308000Y-20828000D03*
X53848000Y-20828000D03*
X56388000Y-20828000D03*
D14*
X58928000Y-20828000D03*
D16*
G36*
X115801226Y-42255490D02*
X115827225Y-42259346D01*
X115852720Y-42265732D01*
X115877467Y-42274587D01*
X115901227Y-42285824D01*
X115923771Y-42299337D01*
X115944881Y-42314993D01*
X115964356Y-42332644D01*
X115982007Y-42352119D01*
X115997663Y-42373229D01*
X116011176Y-42395773D01*
X116022413Y-42419533D01*
X116031268Y-42444280D01*
X116037654Y-42469775D01*
X116041510Y-42495774D01*
X116042800Y-42522025D01*
X116042800Y-43837975D01*
X116041510Y-43864226D01*
X116037654Y-43890225D01*
X116031268Y-43915720D01*
X116022413Y-43940467D01*
X116011176Y-43964227D01*
X115997663Y-43986771D01*
X115982007Y-44007881D01*
X115964356Y-44027356D01*
X115944881Y-44045007D01*
X115923771Y-44060663D01*
X115901227Y-44074176D01*
X115877467Y-44085413D01*
X115852720Y-44094268D01*
X115827225Y-44100654D01*
X115801226Y-44104510D01*
X115774975Y-44105800D01*
X114784025Y-44105800D01*
X114757774Y-44104510D01*
X114731775Y-44100654D01*
X114706280Y-44094268D01*
X114681533Y-44085413D01*
X114657773Y-44074176D01*
X114635229Y-44060663D01*
X114614119Y-44045007D01*
X114594644Y-44027356D01*
X114576993Y-44007881D01*
X114561337Y-43986771D01*
X114547824Y-43964227D01*
X114536587Y-43940467D01*
X114527732Y-43915720D01*
X114521346Y-43890225D01*
X114517490Y-43864226D01*
X114516200Y-43837975D01*
X114516200Y-42522025D01*
X114517490Y-42495774D01*
X114521346Y-42469775D01*
X114527732Y-42444280D01*
X114536587Y-42419533D01*
X114547824Y-42395773D01*
X114561337Y-42373229D01*
X114576993Y-42352119D01*
X114594644Y-42332644D01*
X114614119Y-42314993D01*
X114635229Y-42299337D01*
X114657773Y-42285824D01*
X114681533Y-42274587D01*
X114706280Y-42265732D01*
X114731775Y-42259346D01*
X114757774Y-42255490D01*
X114784025Y-42254200D01*
X115774975Y-42254200D01*
X115801226Y-42255490D01*
X115801226Y-42255490D01*
G37*
D17*
X115279500Y-43180000D03*
D16*
G36*
X112826226Y-42255490D02*
X112852225Y-42259346D01*
X112877720Y-42265732D01*
X112902467Y-42274587D01*
X112926227Y-42285824D01*
X112948771Y-42299337D01*
X112969881Y-42314993D01*
X112989356Y-42332644D01*
X113007007Y-42352119D01*
X113022663Y-42373229D01*
X113036176Y-42395773D01*
X113047413Y-42419533D01*
X113056268Y-42444280D01*
X113062654Y-42469775D01*
X113066510Y-42495774D01*
X113067800Y-42522025D01*
X113067800Y-43837975D01*
X113066510Y-43864226D01*
X113062654Y-43890225D01*
X113056268Y-43915720D01*
X113047413Y-43940467D01*
X113036176Y-43964227D01*
X113022663Y-43986771D01*
X113007007Y-44007881D01*
X112989356Y-44027356D01*
X112969881Y-44045007D01*
X112948771Y-44060663D01*
X112926227Y-44074176D01*
X112902467Y-44085413D01*
X112877720Y-44094268D01*
X112852225Y-44100654D01*
X112826226Y-44104510D01*
X112799975Y-44105800D01*
X111809025Y-44105800D01*
X111782774Y-44104510D01*
X111756775Y-44100654D01*
X111731280Y-44094268D01*
X111706533Y-44085413D01*
X111682773Y-44074176D01*
X111660229Y-44060663D01*
X111639119Y-44045007D01*
X111619644Y-44027356D01*
X111601993Y-44007881D01*
X111586337Y-43986771D01*
X111572824Y-43964227D01*
X111561587Y-43940467D01*
X111552732Y-43915720D01*
X111546346Y-43890225D01*
X111542490Y-43864226D01*
X111541200Y-43837975D01*
X111541200Y-42522025D01*
X111542490Y-42495774D01*
X111546346Y-42469775D01*
X111552732Y-42444280D01*
X111561587Y-42419533D01*
X111572824Y-42395773D01*
X111586337Y-42373229D01*
X111601993Y-42352119D01*
X111619644Y-42332644D01*
X111639119Y-42314993D01*
X111660229Y-42299337D01*
X111682773Y-42285824D01*
X111706533Y-42274587D01*
X111731280Y-42265732D01*
X111756775Y-42259346D01*
X111782774Y-42255490D01*
X111809025Y-42254200D01*
X112799975Y-42254200D01*
X112826226Y-42255490D01*
X112826226Y-42255490D01*
G37*
D17*
X112304500Y-43180000D03*
D18*
X52070000Y-33274000D03*
X54610000Y-33274000D03*
X57150000Y-33274000D03*
X59690000Y-33274000D03*
X62230000Y-33274000D03*
X64770000Y-33274000D03*
X67310000Y-33274000D03*
X69850000Y-33274000D03*
X49530000Y-35814000D03*
X54610000Y-35814000D03*
X57150000Y-35814000D03*
X59690000Y-35814000D03*
X62230000Y-35814000D03*
X64770000Y-35814000D03*
X67310000Y-35814000D03*
X69850000Y-35814000D03*
X72390000Y-35814000D03*
X74930000Y-35814000D03*
X74930000Y-38354000D03*
X74930000Y-40894000D03*
X74930000Y-43434000D03*
X74930000Y-45974000D03*
X74930000Y-48514000D03*
X74930000Y-51054000D03*
X74930000Y-53594000D03*
X74930000Y-56134000D03*
X72390000Y-33274000D03*
X72390000Y-38354000D03*
X72390000Y-40894000D03*
X72390000Y-43434000D03*
X72390000Y-45974000D03*
X72390000Y-48514000D03*
X72390000Y-51054000D03*
X72390000Y-53594000D03*
X72390000Y-56134000D03*
X72390000Y-58674000D03*
X69850000Y-58674000D03*
X67310000Y-58674000D03*
X64770000Y-58674000D03*
X62230000Y-58674000D03*
X59690000Y-58674000D03*
X57150000Y-58674000D03*
X54610000Y-58674000D03*
X52070000Y-58674000D03*
X69850000Y-56134000D03*
X67310000Y-56134000D03*
X64770000Y-56134000D03*
X62230000Y-56134000D03*
X59690000Y-56134000D03*
X57150000Y-56134000D03*
X54610000Y-56134000D03*
X52070000Y-56134000D03*
X49530000Y-38354000D03*
X49530000Y-40894000D03*
X49530000Y-43434000D03*
X49530000Y-56134000D03*
X49530000Y-53594000D03*
X49530000Y-51054000D03*
X49530000Y-48514000D03*
D19*
X49530000Y-45974000D03*
D18*
X52070000Y-35814000D03*
X52070000Y-38354000D03*
X52070000Y-40894000D03*
X52070000Y-43434000D03*
X52070000Y-53594000D03*
X52070000Y-51054000D03*
X52070000Y-48514000D03*
X52070000Y-45974000D03*
D13*
X89408000Y-22860000D03*
X89408000Y-20320000D03*
X91948000Y-22860000D03*
X91948000Y-20320000D03*
X94488000Y-22860000D03*
X94488000Y-20320000D03*
X97028000Y-22860000D03*
D14*
X97028000Y-20320000D03*
D20*
X85090000Y-65024000D03*
X100330000Y-26924000D03*
X85090000Y-62484000D03*
X100330000Y-29464000D03*
X85090000Y-59944000D03*
X100330000Y-32004000D03*
X85090000Y-57404000D03*
X100330000Y-34544000D03*
X85090000Y-54864000D03*
X100330000Y-37084000D03*
X85090000Y-52324000D03*
X100330000Y-39624000D03*
X85090000Y-49784000D03*
X100330000Y-42164000D03*
X85090000Y-47244000D03*
X100330000Y-44704000D03*
X85090000Y-44704000D03*
X100330000Y-47244000D03*
X85090000Y-42164000D03*
X100330000Y-49784000D03*
X85090000Y-39624000D03*
X100330000Y-52324000D03*
X85090000Y-37084000D03*
X100330000Y-54864000D03*
X85090000Y-34544000D03*
X100330000Y-57404000D03*
X85090000Y-32004000D03*
X100330000Y-59944000D03*
X85090000Y-29464000D03*
X100330000Y-62484000D03*
X85090000Y-26924000D03*
D21*
X100330000Y-65024000D03*
D20*
X63500000Y-20828000D03*
X81280000Y-28448000D03*
X66040000Y-20828000D03*
X78740000Y-28448000D03*
X68580000Y-20828000D03*
X76200000Y-28448000D03*
X71120000Y-20828000D03*
X73660000Y-28448000D03*
X73660000Y-20828000D03*
X71120000Y-28448000D03*
X76200000Y-20828000D03*
X68580000Y-28448000D03*
X78740000Y-20828000D03*
X66040000Y-28448000D03*
X81280000Y-20828000D03*
D21*
X63500000Y-28448000D03*
D22*
X121562726Y-19153274D03*
X120396000Y-18670000D03*
X119229274Y-19153274D03*
X118746000Y-20320000D03*
X119229274Y-21486726D03*
X120396000Y-21970000D03*
X121562726Y-21486726D03*
X122046000Y-20320000D03*
D23*
X120396000Y-20320000D03*
D16*
G36*
X81330226Y-64099490D02*
X81356225Y-64103346D01*
X81381720Y-64109732D01*
X81406467Y-64118587D01*
X81430227Y-64129824D01*
X81452771Y-64143337D01*
X81473881Y-64158993D01*
X81493356Y-64176644D01*
X81511007Y-64196119D01*
X81526663Y-64217229D01*
X81540176Y-64239773D01*
X81551413Y-64263533D01*
X81560268Y-64288280D01*
X81566654Y-64313775D01*
X81570510Y-64339774D01*
X81571800Y-64366025D01*
X81571800Y-65681975D01*
X81570510Y-65708226D01*
X81566654Y-65734225D01*
X81560268Y-65759720D01*
X81551413Y-65784467D01*
X81540176Y-65808227D01*
X81526663Y-65830771D01*
X81511007Y-65851881D01*
X81493356Y-65871356D01*
X81473881Y-65889007D01*
X81452771Y-65904663D01*
X81430227Y-65918176D01*
X81406467Y-65929413D01*
X81381720Y-65938268D01*
X81356225Y-65944654D01*
X81330226Y-65948510D01*
X81303975Y-65949800D01*
X80313025Y-65949800D01*
X80286774Y-65948510D01*
X80260775Y-65944654D01*
X80235280Y-65938268D01*
X80210533Y-65929413D01*
X80186773Y-65918176D01*
X80164229Y-65904663D01*
X80143119Y-65889007D01*
X80123644Y-65871356D01*
X80105993Y-65851881D01*
X80090337Y-65830771D01*
X80076824Y-65808227D01*
X80065587Y-65784467D01*
X80056732Y-65759720D01*
X80050346Y-65734225D01*
X80046490Y-65708226D01*
X80045200Y-65681975D01*
X80045200Y-64366025D01*
X80046490Y-64339774D01*
X80050346Y-64313775D01*
X80056732Y-64288280D01*
X80065587Y-64263533D01*
X80076824Y-64239773D01*
X80090337Y-64217229D01*
X80105993Y-64196119D01*
X80123644Y-64176644D01*
X80143119Y-64158993D01*
X80164229Y-64143337D01*
X80186773Y-64129824D01*
X80210533Y-64118587D01*
X80235280Y-64109732D01*
X80260775Y-64103346D01*
X80286774Y-64099490D01*
X80313025Y-64098200D01*
X81303975Y-64098200D01*
X81330226Y-64099490D01*
X81330226Y-64099490D01*
G37*
D17*
X80808500Y-65024000D03*
D16*
G36*
X84305226Y-64099490D02*
X84331225Y-64103346D01*
X84356720Y-64109732D01*
X84381467Y-64118587D01*
X84405227Y-64129824D01*
X84427771Y-64143337D01*
X84448881Y-64158993D01*
X84468356Y-64176644D01*
X84486007Y-64196119D01*
X84501663Y-64217229D01*
X84515176Y-64239773D01*
X84526413Y-64263533D01*
X84535268Y-64288280D01*
X84541654Y-64313775D01*
X84545510Y-64339774D01*
X84546800Y-64366025D01*
X84546800Y-65681975D01*
X84545510Y-65708226D01*
X84541654Y-65734225D01*
X84535268Y-65759720D01*
X84526413Y-65784467D01*
X84515176Y-65808227D01*
X84501663Y-65830771D01*
X84486007Y-65851881D01*
X84468356Y-65871356D01*
X84448881Y-65889007D01*
X84427771Y-65904663D01*
X84405227Y-65918176D01*
X84381467Y-65929413D01*
X84356720Y-65938268D01*
X84331225Y-65944654D01*
X84305226Y-65948510D01*
X84278975Y-65949800D01*
X83288025Y-65949800D01*
X83261774Y-65948510D01*
X83235775Y-65944654D01*
X83210280Y-65938268D01*
X83185533Y-65929413D01*
X83161773Y-65918176D01*
X83139229Y-65904663D01*
X83118119Y-65889007D01*
X83098644Y-65871356D01*
X83080993Y-65851881D01*
X83065337Y-65830771D01*
X83051824Y-65808227D01*
X83040587Y-65784467D01*
X83031732Y-65759720D01*
X83025346Y-65734225D01*
X83021490Y-65708226D01*
X83020200Y-65681975D01*
X83020200Y-64366025D01*
X83021490Y-64339774D01*
X83025346Y-64313775D01*
X83031732Y-64288280D01*
X83040587Y-64263533D01*
X83051824Y-64239773D01*
X83065337Y-64217229D01*
X83080993Y-64196119D01*
X83098644Y-64176644D01*
X83118119Y-64158993D01*
X83139229Y-64143337D01*
X83161773Y-64129824D01*
X83185533Y-64118587D01*
X83210280Y-64109732D01*
X83235775Y-64103346D01*
X83261774Y-64099490D01*
X83288025Y-64098200D01*
X84278975Y-64098200D01*
X84305226Y-64099490D01*
X84305226Y-64099490D01*
G37*
D17*
X83783500Y-65024000D03*
D16*
G36*
X80749226Y-56479490D02*
X80775225Y-56483346D01*
X80800720Y-56489732D01*
X80825467Y-56498587D01*
X80849227Y-56509824D01*
X80871771Y-56523337D01*
X80892881Y-56538993D01*
X80912356Y-56556644D01*
X80930007Y-56576119D01*
X80945663Y-56597229D01*
X80959176Y-56619773D01*
X80970413Y-56643533D01*
X80979268Y-56668280D01*
X80985654Y-56693775D01*
X80989510Y-56719774D01*
X80990800Y-56746025D01*
X80990800Y-58061975D01*
X80989510Y-58088226D01*
X80985654Y-58114225D01*
X80979268Y-58139720D01*
X80970413Y-58164467D01*
X80959176Y-58188227D01*
X80945663Y-58210771D01*
X80930007Y-58231881D01*
X80912356Y-58251356D01*
X80892881Y-58269007D01*
X80871771Y-58284663D01*
X80849227Y-58298176D01*
X80825467Y-58309413D01*
X80800720Y-58318268D01*
X80775225Y-58324654D01*
X80749226Y-58328510D01*
X80722975Y-58329800D01*
X79732025Y-58329800D01*
X79705774Y-58328510D01*
X79679775Y-58324654D01*
X79654280Y-58318268D01*
X79629533Y-58309413D01*
X79605773Y-58298176D01*
X79583229Y-58284663D01*
X79562119Y-58269007D01*
X79542644Y-58251356D01*
X79524993Y-58231881D01*
X79509337Y-58210771D01*
X79495824Y-58188227D01*
X79484587Y-58164467D01*
X79475732Y-58139720D01*
X79469346Y-58114225D01*
X79465490Y-58088226D01*
X79464200Y-58061975D01*
X79464200Y-56746025D01*
X79465490Y-56719774D01*
X79469346Y-56693775D01*
X79475732Y-56668280D01*
X79484587Y-56643533D01*
X79495824Y-56619773D01*
X79509337Y-56597229D01*
X79524993Y-56576119D01*
X79542644Y-56556644D01*
X79562119Y-56538993D01*
X79583229Y-56523337D01*
X79605773Y-56509824D01*
X79629533Y-56498587D01*
X79654280Y-56489732D01*
X79679775Y-56483346D01*
X79705774Y-56479490D01*
X79732025Y-56478200D01*
X80722975Y-56478200D01*
X80749226Y-56479490D01*
X80749226Y-56479490D01*
G37*
D17*
X80227500Y-57404000D03*
D16*
G36*
X77774226Y-56479490D02*
X77800225Y-56483346D01*
X77825720Y-56489732D01*
X77850467Y-56498587D01*
X77874227Y-56509824D01*
X77896771Y-56523337D01*
X77917881Y-56538993D01*
X77937356Y-56556644D01*
X77955007Y-56576119D01*
X77970663Y-56597229D01*
X77984176Y-56619773D01*
X77995413Y-56643533D01*
X78004268Y-56668280D01*
X78010654Y-56693775D01*
X78014510Y-56719774D01*
X78015800Y-56746025D01*
X78015800Y-58061975D01*
X78014510Y-58088226D01*
X78010654Y-58114225D01*
X78004268Y-58139720D01*
X77995413Y-58164467D01*
X77984176Y-58188227D01*
X77970663Y-58210771D01*
X77955007Y-58231881D01*
X77937356Y-58251356D01*
X77917881Y-58269007D01*
X77896771Y-58284663D01*
X77874227Y-58298176D01*
X77850467Y-58309413D01*
X77825720Y-58318268D01*
X77800225Y-58324654D01*
X77774226Y-58328510D01*
X77747975Y-58329800D01*
X76757025Y-58329800D01*
X76730774Y-58328510D01*
X76704775Y-58324654D01*
X76679280Y-58318268D01*
X76654533Y-58309413D01*
X76630773Y-58298176D01*
X76608229Y-58284663D01*
X76587119Y-58269007D01*
X76567644Y-58251356D01*
X76549993Y-58231881D01*
X76534337Y-58210771D01*
X76520824Y-58188227D01*
X76509587Y-58164467D01*
X76500732Y-58139720D01*
X76494346Y-58114225D01*
X76490490Y-58088226D01*
X76489200Y-58061975D01*
X76489200Y-56746025D01*
X76490490Y-56719774D01*
X76494346Y-56693775D01*
X76500732Y-56668280D01*
X76509587Y-56643533D01*
X76520824Y-56619773D01*
X76534337Y-56597229D01*
X76549993Y-56576119D01*
X76567644Y-56556644D01*
X76587119Y-56538993D01*
X76608229Y-56523337D01*
X76630773Y-56509824D01*
X76654533Y-56498587D01*
X76679280Y-56489732D01*
X76704775Y-56483346D01*
X76730774Y-56479490D01*
X76757025Y-56478200D01*
X77747975Y-56478200D01*
X77774226Y-56479490D01*
X77774226Y-56479490D01*
G37*
D17*
X77252500Y-57404000D03*
D22*
X42822726Y-19153274D03*
X41656000Y-18670000D03*
X40489274Y-19153274D03*
X40006000Y-20320000D03*
X40489274Y-21486726D03*
X41656000Y-21970000D03*
X42822726Y-21486726D03*
X43306000Y-20320000D03*
D23*
X41656000Y-20320000D03*
D24*
X107198000Y-44958000D03*
X107188000Y-50038000D03*
D25*
X109434000Y-66548000D03*
D21*
X106934000Y-66548000D03*
D20*
X82042000Y-59944000D03*
X100330000Y-24130000D03*
X82042000Y-57404000D03*
X100330000Y-29464000D03*
X85090000Y-54864000D03*
X100330000Y-32004000D03*
X85090000Y-52324000D03*
X100330000Y-34544000D03*
X85090000Y-49784000D03*
X100330000Y-37084000D03*
X85090000Y-47244000D03*
X100330000Y-39624000D03*
X85090000Y-44704000D03*
X100330000Y-42164000D03*
X85090000Y-42164000D03*
X100330000Y-44704000D03*
X82042000Y-39624000D03*
X100330000Y-47244000D03*
X85090000Y-37084000D03*
X100330000Y-49784000D03*
X85090000Y-34544000D03*
X100330000Y-52324000D03*
X85090000Y-32004000D03*
X100330000Y-54864000D03*
X85090000Y-29464000D03*
X100330000Y-57404000D03*
X85090000Y-26924000D03*
D21*
X100330000Y-59944000D03*
D22*
X121562726Y-67413274D03*
X120396000Y-66930000D03*
X119229274Y-67413274D03*
X118746000Y-68580000D03*
X119229274Y-69746726D03*
X120396000Y-70230000D03*
X121562726Y-69746726D03*
X122046000Y-68580000D03*
D23*
X120396000Y-68580000D03*
D20*
X112485500Y-20066000D03*
X104865500Y-37846000D03*
X112485500Y-22606000D03*
X104865500Y-35306000D03*
X112485500Y-25146000D03*
X104865500Y-32766000D03*
X112485500Y-27686000D03*
X104865500Y-30226000D03*
X112485500Y-30226000D03*
X104865500Y-27686000D03*
X112485500Y-32766000D03*
X104865500Y-25146000D03*
X112485500Y-35306000D03*
X104865500Y-22606000D03*
X112485500Y-37846000D03*
D21*
X104865500Y-20066000D03*
D26*
X63214000Y-68580000D03*
D27*
X61214000Y-68580000D03*
D16*
G36*
X57127226Y-45049490D02*
X57153225Y-45053346D01*
X57178720Y-45059732D01*
X57203467Y-45068587D01*
X57227227Y-45079824D01*
X57249771Y-45093337D01*
X57270881Y-45108993D01*
X57290356Y-45126644D01*
X57308007Y-45146119D01*
X57323663Y-45167229D01*
X57337176Y-45189773D01*
X57348413Y-45213533D01*
X57357268Y-45238280D01*
X57363654Y-45263775D01*
X57367510Y-45289774D01*
X57368800Y-45316025D01*
X57368800Y-46631975D01*
X57367510Y-46658226D01*
X57363654Y-46684225D01*
X57357268Y-46709720D01*
X57348413Y-46734467D01*
X57337176Y-46758227D01*
X57323663Y-46780771D01*
X57308007Y-46801881D01*
X57290356Y-46821356D01*
X57270881Y-46839007D01*
X57249771Y-46854663D01*
X57227227Y-46868176D01*
X57203467Y-46879413D01*
X57178720Y-46888268D01*
X57153225Y-46894654D01*
X57127226Y-46898510D01*
X57100975Y-46899800D01*
X56110025Y-46899800D01*
X56083774Y-46898510D01*
X56057775Y-46894654D01*
X56032280Y-46888268D01*
X56007533Y-46879413D01*
X55983773Y-46868176D01*
X55961229Y-46854663D01*
X55940119Y-46839007D01*
X55920644Y-46821356D01*
X55902993Y-46801881D01*
X55887337Y-46780771D01*
X55873824Y-46758227D01*
X55862587Y-46734467D01*
X55853732Y-46709720D01*
X55847346Y-46684225D01*
X55843490Y-46658226D01*
X55842200Y-46631975D01*
X55842200Y-45316025D01*
X55843490Y-45289774D01*
X55847346Y-45263775D01*
X55853732Y-45238280D01*
X55862587Y-45213533D01*
X55873824Y-45189773D01*
X55887337Y-45167229D01*
X55902993Y-45146119D01*
X55920644Y-45126644D01*
X55940119Y-45108993D01*
X55961229Y-45093337D01*
X55983773Y-45079824D01*
X56007533Y-45068587D01*
X56032280Y-45059732D01*
X56057775Y-45053346D01*
X56083774Y-45049490D01*
X56110025Y-45048200D01*
X57100975Y-45048200D01*
X57127226Y-45049490D01*
X57127226Y-45049490D01*
G37*
D17*
X56605500Y-45974000D03*
D16*
G36*
X54152226Y-45049490D02*
X54178225Y-45053346D01*
X54203720Y-45059732D01*
X54228467Y-45068587D01*
X54252227Y-45079824D01*
X54274771Y-45093337D01*
X54295881Y-45108993D01*
X54315356Y-45126644D01*
X54333007Y-45146119D01*
X54348663Y-45167229D01*
X54362176Y-45189773D01*
X54373413Y-45213533D01*
X54382268Y-45238280D01*
X54388654Y-45263775D01*
X54392510Y-45289774D01*
X54393800Y-45316025D01*
X54393800Y-46631975D01*
X54392510Y-46658226D01*
X54388654Y-46684225D01*
X54382268Y-46709720D01*
X54373413Y-46734467D01*
X54362176Y-46758227D01*
X54348663Y-46780771D01*
X54333007Y-46801881D01*
X54315356Y-46821356D01*
X54295881Y-46839007D01*
X54274771Y-46854663D01*
X54252227Y-46868176D01*
X54228467Y-46879413D01*
X54203720Y-46888268D01*
X54178225Y-46894654D01*
X54152226Y-46898510D01*
X54125975Y-46899800D01*
X53135025Y-46899800D01*
X53108774Y-46898510D01*
X53082775Y-46894654D01*
X53057280Y-46888268D01*
X53032533Y-46879413D01*
X53008773Y-46868176D01*
X52986229Y-46854663D01*
X52965119Y-46839007D01*
X52945644Y-46821356D01*
X52927993Y-46801881D01*
X52912337Y-46780771D01*
X52898824Y-46758227D01*
X52887587Y-46734467D01*
X52878732Y-46709720D01*
X52872346Y-46684225D01*
X52868490Y-46658226D01*
X52867200Y-46631975D01*
X52867200Y-45316025D01*
X52868490Y-45289774D01*
X52872346Y-45263775D01*
X52878732Y-45238280D01*
X52887587Y-45213533D01*
X52898824Y-45189773D01*
X52912337Y-45167229D01*
X52927993Y-45146119D01*
X52945644Y-45126644D01*
X52965119Y-45108993D01*
X52986229Y-45093337D01*
X53008773Y-45079824D01*
X53032533Y-45068587D01*
X53057280Y-45059732D01*
X53082775Y-45053346D01*
X53108774Y-45049490D01*
X53135025Y-45048200D01*
X54125975Y-45048200D01*
X54152226Y-45049490D01*
X54152226Y-45049490D01*
G37*
D17*
X53630500Y-45974000D03*
D25*
X109434000Y-56896000D03*
D21*
X106934000Y-56896000D03*
D13*
X58928000Y-24892000D03*
X58928000Y-27432000D03*
X56388000Y-24892000D03*
X56388000Y-27432000D03*
X53848000Y-24892000D03*
X53848000Y-27432000D03*
X51308000Y-24892000D03*
X51308000Y-27432000D03*
X48768000Y-24892000D03*
X48768000Y-27432000D03*
X46228000Y-24892000D03*
D14*
X46228000Y-27432000D03*
D16*
G36*
X64184226Y-21626490D02*
X64210225Y-21630346D01*
X64235720Y-21636732D01*
X64260467Y-21645587D01*
X64284227Y-21656824D01*
X64306771Y-21670337D01*
X64327881Y-21685993D01*
X64347356Y-21703644D01*
X64365007Y-21723119D01*
X64380663Y-21744229D01*
X64394176Y-21766773D01*
X64405413Y-21790533D01*
X64414268Y-21815280D01*
X64420654Y-21840775D01*
X64424510Y-21866774D01*
X64425800Y-21893025D01*
X64425800Y-22883975D01*
X64424510Y-22910226D01*
X64420654Y-22936225D01*
X64414268Y-22961720D01*
X64405413Y-22986467D01*
X64394176Y-23010227D01*
X64380663Y-23032771D01*
X64365007Y-23053881D01*
X64347356Y-23073356D01*
X64327881Y-23091007D01*
X64306771Y-23106663D01*
X64284227Y-23120176D01*
X64260467Y-23131413D01*
X64235720Y-23140268D01*
X64210225Y-23146654D01*
X64184226Y-23150510D01*
X64157975Y-23151800D01*
X62842025Y-23151800D01*
X62815774Y-23150510D01*
X62789775Y-23146654D01*
X62764280Y-23140268D01*
X62739533Y-23131413D01*
X62715773Y-23120176D01*
X62693229Y-23106663D01*
X62672119Y-23091007D01*
X62652644Y-23073356D01*
X62634993Y-23053881D01*
X62619337Y-23032771D01*
X62605824Y-23010227D01*
X62594587Y-22986467D01*
X62585732Y-22961720D01*
X62579346Y-22936225D01*
X62575490Y-22910226D01*
X62574200Y-22883975D01*
X62574200Y-21893025D01*
X62575490Y-21866774D01*
X62579346Y-21840775D01*
X62585732Y-21815280D01*
X62594587Y-21790533D01*
X62605824Y-21766773D01*
X62619337Y-21744229D01*
X62634993Y-21723119D01*
X62652644Y-21703644D01*
X62672119Y-21685993D01*
X62693229Y-21670337D01*
X62715773Y-21656824D01*
X62739533Y-21645587D01*
X62764280Y-21636732D01*
X62789775Y-21630346D01*
X62815774Y-21626490D01*
X62842025Y-21625200D01*
X64157975Y-21625200D01*
X64184226Y-21626490D01*
X64184226Y-21626490D01*
G37*
D17*
X63500000Y-22388500D03*
D16*
G36*
X64184226Y-24601490D02*
X64210225Y-24605346D01*
X64235720Y-24611732D01*
X64260467Y-24620587D01*
X64284227Y-24631824D01*
X64306771Y-24645337D01*
X64327881Y-24660993D01*
X64347356Y-24678644D01*
X64365007Y-24698119D01*
X64380663Y-24719229D01*
X64394176Y-24741773D01*
X64405413Y-24765533D01*
X64414268Y-24790280D01*
X64420654Y-24815775D01*
X64424510Y-24841774D01*
X64425800Y-24868025D01*
X64425800Y-25858975D01*
X64424510Y-25885226D01*
X64420654Y-25911225D01*
X64414268Y-25936720D01*
X64405413Y-25961467D01*
X64394176Y-25985227D01*
X64380663Y-26007771D01*
X64365007Y-26028881D01*
X64347356Y-26048356D01*
X64327881Y-26066007D01*
X64306771Y-26081663D01*
X64284227Y-26095176D01*
X64260467Y-26106413D01*
X64235720Y-26115268D01*
X64210225Y-26121654D01*
X64184226Y-26125510D01*
X64157975Y-26126800D01*
X62842025Y-26126800D01*
X62815774Y-26125510D01*
X62789775Y-26121654D01*
X62764280Y-26115268D01*
X62739533Y-26106413D01*
X62715773Y-26095176D01*
X62693229Y-26081663D01*
X62672119Y-26066007D01*
X62652644Y-26048356D01*
X62634993Y-26028881D01*
X62619337Y-26007771D01*
X62605824Y-25985227D01*
X62594587Y-25961467D01*
X62585732Y-25936720D01*
X62579346Y-25911225D01*
X62575490Y-25885226D01*
X62574200Y-25858975D01*
X62574200Y-24868025D01*
X62575490Y-24841774D01*
X62579346Y-24815775D01*
X62585732Y-24790280D01*
X62594587Y-24765533D01*
X62605824Y-24741773D01*
X62619337Y-24719229D01*
X62634993Y-24698119D01*
X62652644Y-24678644D01*
X62672119Y-24660993D01*
X62693229Y-24645337D01*
X62715773Y-24631824D01*
X62739533Y-24620587D01*
X62764280Y-24611732D01*
X62789775Y-24605346D01*
X62815774Y-24601490D01*
X62842025Y-24600200D01*
X64157975Y-24600200D01*
X64184226Y-24601490D01*
X64184226Y-24601490D01*
G37*
D17*
X63500000Y-25363500D03*
D28*
X54070000Y-43434000D03*
X52070000Y-43434000D03*
X66516000Y-49276000D03*
X64516000Y-49276000D03*
X56102000Y-48260000D03*
X54102000Y-48260000D03*
D29*
X87884000Y-39624000D03*
X98044000Y-34544000D03*
X81026000Y-41910000D03*
X54102000Y-38608000D03*
X45212000Y-30480000D03*
D16*
G36*
X88060226Y-59218490D02*
X88086225Y-59222346D01*
X88111720Y-59228732D01*
X88136467Y-59237587D01*
X88160227Y-59248824D01*
X88182771Y-59262337D01*
X88203881Y-59277993D01*
X88223356Y-59295644D01*
X88241007Y-59315119D01*
X88256663Y-59336229D01*
X88270176Y-59358773D01*
X88281413Y-59382533D01*
X88290268Y-59407280D01*
X88296654Y-59432775D01*
X88300510Y-59458774D01*
X88301800Y-59485025D01*
X88301800Y-60475975D01*
X88300510Y-60502226D01*
X88296654Y-60528225D01*
X88290268Y-60553720D01*
X88281413Y-60578467D01*
X88270176Y-60602227D01*
X88256663Y-60624771D01*
X88241007Y-60645881D01*
X88223356Y-60665356D01*
X88203881Y-60683007D01*
X88182771Y-60698663D01*
X88160227Y-60712176D01*
X88136467Y-60723413D01*
X88111720Y-60732268D01*
X88086225Y-60738654D01*
X88060226Y-60742510D01*
X88033975Y-60743800D01*
X86718025Y-60743800D01*
X86691774Y-60742510D01*
X86665775Y-60738654D01*
X86640280Y-60732268D01*
X86615533Y-60723413D01*
X86591773Y-60712176D01*
X86569229Y-60698663D01*
X86548119Y-60683007D01*
X86528644Y-60665356D01*
X86510993Y-60645881D01*
X86495337Y-60624771D01*
X86481824Y-60602227D01*
X86470587Y-60578467D01*
X86461732Y-60553720D01*
X86455346Y-60528225D01*
X86451490Y-60502226D01*
X86450200Y-60475975D01*
X86450200Y-59485025D01*
X86451490Y-59458774D01*
X86455346Y-59432775D01*
X86461732Y-59407280D01*
X86470587Y-59382533D01*
X86481824Y-59358773D01*
X86495337Y-59336229D01*
X86510993Y-59315119D01*
X86528644Y-59295644D01*
X86548119Y-59277993D01*
X86569229Y-59262337D01*
X86591773Y-59248824D01*
X86615533Y-59237587D01*
X86640280Y-59228732D01*
X86665775Y-59222346D01*
X86691774Y-59218490D01*
X86718025Y-59217200D01*
X88033975Y-59217200D01*
X88060226Y-59218490D01*
X88060226Y-59218490D01*
G37*
D17*
X87376000Y-59980500D03*
D16*
G36*
X88060226Y-62193490D02*
X88086225Y-62197346D01*
X88111720Y-62203732D01*
X88136467Y-62212587D01*
X88160227Y-62223824D01*
X88182771Y-62237337D01*
X88203881Y-62252993D01*
X88223356Y-62270644D01*
X88241007Y-62290119D01*
X88256663Y-62311229D01*
X88270176Y-62333773D01*
X88281413Y-62357533D01*
X88290268Y-62382280D01*
X88296654Y-62407775D01*
X88300510Y-62433774D01*
X88301800Y-62460025D01*
X88301800Y-63450975D01*
X88300510Y-63477226D01*
X88296654Y-63503225D01*
X88290268Y-63528720D01*
X88281413Y-63553467D01*
X88270176Y-63577227D01*
X88256663Y-63599771D01*
X88241007Y-63620881D01*
X88223356Y-63640356D01*
X88203881Y-63658007D01*
X88182771Y-63673663D01*
X88160227Y-63687176D01*
X88136467Y-63698413D01*
X88111720Y-63707268D01*
X88086225Y-63713654D01*
X88060226Y-63717510D01*
X88033975Y-63718800D01*
X86718025Y-63718800D01*
X86691774Y-63717510D01*
X86665775Y-63713654D01*
X86640280Y-63707268D01*
X86615533Y-63698413D01*
X86591773Y-63687176D01*
X86569229Y-63673663D01*
X86548119Y-63658007D01*
X86528644Y-63640356D01*
X86510993Y-63620881D01*
X86495337Y-63599771D01*
X86481824Y-63577227D01*
X86470587Y-63553467D01*
X86461732Y-63528720D01*
X86455346Y-63503225D01*
X86451490Y-63477226D01*
X86450200Y-63450975D01*
X86450200Y-62460025D01*
X86451490Y-62433774D01*
X86455346Y-62407775D01*
X86461732Y-62382280D01*
X86470587Y-62357533D01*
X86481824Y-62333773D01*
X86495337Y-62311229D01*
X86510993Y-62290119D01*
X86528644Y-62270644D01*
X86548119Y-62252993D01*
X86569229Y-62237337D01*
X86591773Y-62223824D01*
X86615533Y-62212587D01*
X86640280Y-62203732D01*
X86665775Y-62197346D01*
X86691774Y-62193490D01*
X86718025Y-62192200D01*
X88033975Y-62192200D01*
X88060226Y-62193490D01*
X88060226Y-62193490D01*
G37*
D17*
X87376000Y-62955500D03*
D16*
G36*
X74344226Y-23150490D02*
X74370225Y-23154346D01*
X74395720Y-23160732D01*
X74420467Y-23169587D01*
X74444227Y-23180824D01*
X74466771Y-23194337D01*
X74487881Y-23209993D01*
X74507356Y-23227644D01*
X74525007Y-23247119D01*
X74540663Y-23268229D01*
X74554176Y-23290773D01*
X74565413Y-23314533D01*
X74574268Y-23339280D01*
X74580654Y-23364775D01*
X74584510Y-23390774D01*
X74585800Y-23417025D01*
X74585800Y-24407975D01*
X74584510Y-24434226D01*
X74580654Y-24460225D01*
X74574268Y-24485720D01*
X74565413Y-24510467D01*
X74554176Y-24534227D01*
X74540663Y-24556771D01*
X74525007Y-24577881D01*
X74507356Y-24597356D01*
X74487881Y-24615007D01*
X74466771Y-24630663D01*
X74444227Y-24644176D01*
X74420467Y-24655413D01*
X74395720Y-24664268D01*
X74370225Y-24670654D01*
X74344226Y-24674510D01*
X74317975Y-24675800D01*
X73002025Y-24675800D01*
X72975774Y-24674510D01*
X72949775Y-24670654D01*
X72924280Y-24664268D01*
X72899533Y-24655413D01*
X72875773Y-24644176D01*
X72853229Y-24630663D01*
X72832119Y-24615007D01*
X72812644Y-24597356D01*
X72794993Y-24577881D01*
X72779337Y-24556771D01*
X72765824Y-24534227D01*
X72754587Y-24510467D01*
X72745732Y-24485720D01*
X72739346Y-24460225D01*
X72735490Y-24434226D01*
X72734200Y-24407975D01*
X72734200Y-23417025D01*
X72735490Y-23390774D01*
X72739346Y-23364775D01*
X72745732Y-23339280D01*
X72754587Y-23314533D01*
X72765824Y-23290773D01*
X72779337Y-23268229D01*
X72794993Y-23247119D01*
X72812644Y-23227644D01*
X72832119Y-23209993D01*
X72853229Y-23194337D01*
X72875773Y-23180824D01*
X72899533Y-23169587D01*
X72924280Y-23160732D01*
X72949775Y-23154346D01*
X72975774Y-23150490D01*
X73002025Y-23149200D01*
X74317975Y-23149200D01*
X74344226Y-23150490D01*
X74344226Y-23150490D01*
G37*
D17*
X73660000Y-23912500D03*
D16*
G36*
X74344226Y-26125490D02*
X74370225Y-26129346D01*
X74395720Y-26135732D01*
X74420467Y-26144587D01*
X74444227Y-26155824D01*
X74466771Y-26169337D01*
X74487881Y-26184993D01*
X74507356Y-26202644D01*
X74525007Y-26222119D01*
X74540663Y-26243229D01*
X74554176Y-26265773D01*
X74565413Y-26289533D01*
X74574268Y-26314280D01*
X74580654Y-26339775D01*
X74584510Y-26365774D01*
X74585800Y-26392025D01*
X74585800Y-27382975D01*
X74584510Y-27409226D01*
X74580654Y-27435225D01*
X74574268Y-27460720D01*
X74565413Y-27485467D01*
X74554176Y-27509227D01*
X74540663Y-27531771D01*
X74525007Y-27552881D01*
X74507356Y-27572356D01*
X74487881Y-27590007D01*
X74466771Y-27605663D01*
X74444227Y-27619176D01*
X74420467Y-27630413D01*
X74395720Y-27639268D01*
X74370225Y-27645654D01*
X74344226Y-27649510D01*
X74317975Y-27650800D01*
X73002025Y-27650800D01*
X72975774Y-27649510D01*
X72949775Y-27645654D01*
X72924280Y-27639268D01*
X72899533Y-27630413D01*
X72875773Y-27619176D01*
X72853229Y-27605663D01*
X72832119Y-27590007D01*
X72812644Y-27572356D01*
X72794993Y-27552881D01*
X72779337Y-27531771D01*
X72765824Y-27509227D01*
X72754587Y-27485467D01*
X72745732Y-27460720D01*
X72739346Y-27435225D01*
X72735490Y-27409226D01*
X72734200Y-27382975D01*
X72734200Y-26392025D01*
X72735490Y-26365774D01*
X72739346Y-26339775D01*
X72745732Y-26314280D01*
X72754587Y-26289533D01*
X72765824Y-26265773D01*
X72779337Y-26243229D01*
X72794993Y-26222119D01*
X72812644Y-26202644D01*
X72832119Y-26184993D01*
X72853229Y-26169337D01*
X72875773Y-26155824D01*
X72899533Y-26144587D01*
X72924280Y-26135732D01*
X72949775Y-26129346D01*
X72975774Y-26125490D01*
X73002025Y-26124200D01*
X74317975Y-26124200D01*
X74344226Y-26125490D01*
X74344226Y-26125490D01*
G37*
D17*
X73660000Y-26887500D03*
D16*
G36*
X76884226Y-26125490D02*
X76910225Y-26129346D01*
X76935720Y-26135732D01*
X76960467Y-26144587D01*
X76984227Y-26155824D01*
X77006771Y-26169337D01*
X77027881Y-26184993D01*
X77047356Y-26202644D01*
X77065007Y-26222119D01*
X77080663Y-26243229D01*
X77094176Y-26265773D01*
X77105413Y-26289533D01*
X77114268Y-26314280D01*
X77120654Y-26339775D01*
X77124510Y-26365774D01*
X77125800Y-26392025D01*
X77125800Y-27382975D01*
X77124510Y-27409226D01*
X77120654Y-27435225D01*
X77114268Y-27460720D01*
X77105413Y-27485467D01*
X77094176Y-27509227D01*
X77080663Y-27531771D01*
X77065007Y-27552881D01*
X77047356Y-27572356D01*
X77027881Y-27590007D01*
X77006771Y-27605663D01*
X76984227Y-27619176D01*
X76960467Y-27630413D01*
X76935720Y-27639268D01*
X76910225Y-27645654D01*
X76884226Y-27649510D01*
X76857975Y-27650800D01*
X75542025Y-27650800D01*
X75515774Y-27649510D01*
X75489775Y-27645654D01*
X75464280Y-27639268D01*
X75439533Y-27630413D01*
X75415773Y-27619176D01*
X75393229Y-27605663D01*
X75372119Y-27590007D01*
X75352644Y-27572356D01*
X75334993Y-27552881D01*
X75319337Y-27531771D01*
X75305824Y-27509227D01*
X75294587Y-27485467D01*
X75285732Y-27460720D01*
X75279346Y-27435225D01*
X75275490Y-27409226D01*
X75274200Y-27382975D01*
X75274200Y-26392025D01*
X75275490Y-26365774D01*
X75279346Y-26339775D01*
X75285732Y-26314280D01*
X75294587Y-26289533D01*
X75305824Y-26265773D01*
X75319337Y-26243229D01*
X75334993Y-26222119D01*
X75352644Y-26202644D01*
X75372119Y-26184993D01*
X75393229Y-26169337D01*
X75415773Y-26155824D01*
X75439533Y-26144587D01*
X75464280Y-26135732D01*
X75489775Y-26129346D01*
X75515774Y-26125490D01*
X75542025Y-26124200D01*
X76857975Y-26124200D01*
X76884226Y-26125490D01*
X76884226Y-26125490D01*
G37*
D17*
X76200000Y-26887500D03*
D16*
G36*
X76884226Y-23150490D02*
X76910225Y-23154346D01*
X76935720Y-23160732D01*
X76960467Y-23169587D01*
X76984227Y-23180824D01*
X77006771Y-23194337D01*
X77027881Y-23209993D01*
X77047356Y-23227644D01*
X77065007Y-23247119D01*
X77080663Y-23268229D01*
X77094176Y-23290773D01*
X77105413Y-23314533D01*
X77114268Y-23339280D01*
X77120654Y-23364775D01*
X77124510Y-23390774D01*
X77125800Y-23417025D01*
X77125800Y-24407975D01*
X77124510Y-24434226D01*
X77120654Y-24460225D01*
X77114268Y-24485720D01*
X77105413Y-24510467D01*
X77094176Y-24534227D01*
X77080663Y-24556771D01*
X77065007Y-24577881D01*
X77047356Y-24597356D01*
X77027881Y-24615007D01*
X77006771Y-24630663D01*
X76984227Y-24644176D01*
X76960467Y-24655413D01*
X76935720Y-24664268D01*
X76910225Y-24670654D01*
X76884226Y-24674510D01*
X76857975Y-24675800D01*
X75542025Y-24675800D01*
X75515774Y-24674510D01*
X75489775Y-24670654D01*
X75464280Y-24664268D01*
X75439533Y-24655413D01*
X75415773Y-24644176D01*
X75393229Y-24630663D01*
X75372119Y-24615007D01*
X75352644Y-24597356D01*
X75334993Y-24577881D01*
X75319337Y-24556771D01*
X75305824Y-24534227D01*
X75294587Y-24510467D01*
X75285732Y-24485720D01*
X75279346Y-24460225D01*
X75275490Y-24434226D01*
X75274200Y-24407975D01*
X75274200Y-23417025D01*
X75275490Y-23390774D01*
X75279346Y-23364775D01*
X75285732Y-23339280D01*
X75294587Y-23314533D01*
X75305824Y-23290773D01*
X75319337Y-23268229D01*
X75334993Y-23247119D01*
X75352644Y-23227644D01*
X75372119Y-23209993D01*
X75393229Y-23194337D01*
X75415773Y-23180824D01*
X75439533Y-23169587D01*
X75464280Y-23160732D01*
X75489775Y-23154346D01*
X75515774Y-23150490D01*
X75542025Y-23149200D01*
X76857975Y-23149200D01*
X76884226Y-23150490D01*
X76884226Y-23150490D01*
G37*
D17*
X76200000Y-23912500D03*
D24*
X55776000Y-64008000D03*
X55776000Y-68508000D03*
X49276000Y-64008000D03*
X49276000Y-68508000D03*
D16*
G36*
X62914226Y-50328490D02*
X62940225Y-50332346D01*
X62965720Y-50338732D01*
X62990467Y-50347587D01*
X63014227Y-50358824D01*
X63036771Y-50372337D01*
X63057881Y-50387993D01*
X63077356Y-50405644D01*
X63095007Y-50425119D01*
X63110663Y-50446229D01*
X63124176Y-50468773D01*
X63135413Y-50492533D01*
X63144268Y-50517280D01*
X63150654Y-50542775D01*
X63154510Y-50568774D01*
X63155800Y-50595025D01*
X63155800Y-51585975D01*
X63154510Y-51612226D01*
X63150654Y-51638225D01*
X63144268Y-51663720D01*
X63135413Y-51688467D01*
X63124176Y-51712227D01*
X63110663Y-51734771D01*
X63095007Y-51755881D01*
X63077356Y-51775356D01*
X63057881Y-51793007D01*
X63036771Y-51808663D01*
X63014227Y-51822176D01*
X62990467Y-51833413D01*
X62965720Y-51842268D01*
X62940225Y-51848654D01*
X62914226Y-51852510D01*
X62887975Y-51853800D01*
X61572025Y-51853800D01*
X61545774Y-51852510D01*
X61519775Y-51848654D01*
X61494280Y-51842268D01*
X61469533Y-51833413D01*
X61445773Y-51822176D01*
X61423229Y-51808663D01*
X61402119Y-51793007D01*
X61382644Y-51775356D01*
X61364993Y-51755881D01*
X61349337Y-51734771D01*
X61335824Y-51712227D01*
X61324587Y-51688467D01*
X61315732Y-51663720D01*
X61309346Y-51638225D01*
X61305490Y-51612226D01*
X61304200Y-51585975D01*
X61304200Y-50595025D01*
X61305490Y-50568774D01*
X61309346Y-50542775D01*
X61315732Y-50517280D01*
X61324587Y-50492533D01*
X61335824Y-50468773D01*
X61349337Y-50446229D01*
X61364993Y-50425119D01*
X61382644Y-50405644D01*
X61402119Y-50387993D01*
X61423229Y-50372337D01*
X61445773Y-50358824D01*
X61469533Y-50347587D01*
X61494280Y-50338732D01*
X61519775Y-50332346D01*
X61545774Y-50328490D01*
X61572025Y-50327200D01*
X62887975Y-50327200D01*
X62914226Y-50328490D01*
X62914226Y-50328490D01*
G37*
D17*
X62230000Y-51090500D03*
D16*
G36*
X62914226Y-53303490D02*
X62940225Y-53307346D01*
X62965720Y-53313732D01*
X62990467Y-53322587D01*
X63014227Y-53333824D01*
X63036771Y-53347337D01*
X63057881Y-53362993D01*
X63077356Y-53380644D01*
X63095007Y-53400119D01*
X63110663Y-53421229D01*
X63124176Y-53443773D01*
X63135413Y-53467533D01*
X63144268Y-53492280D01*
X63150654Y-53517775D01*
X63154510Y-53543774D01*
X63155800Y-53570025D01*
X63155800Y-54560975D01*
X63154510Y-54587226D01*
X63150654Y-54613225D01*
X63144268Y-54638720D01*
X63135413Y-54663467D01*
X63124176Y-54687227D01*
X63110663Y-54709771D01*
X63095007Y-54730881D01*
X63077356Y-54750356D01*
X63057881Y-54768007D01*
X63036771Y-54783663D01*
X63014227Y-54797176D01*
X62990467Y-54808413D01*
X62965720Y-54817268D01*
X62940225Y-54823654D01*
X62914226Y-54827510D01*
X62887975Y-54828800D01*
X61572025Y-54828800D01*
X61545774Y-54827510D01*
X61519775Y-54823654D01*
X61494280Y-54817268D01*
X61469533Y-54808413D01*
X61445773Y-54797176D01*
X61423229Y-54783663D01*
X61402119Y-54768007D01*
X61382644Y-54750356D01*
X61364993Y-54730881D01*
X61349337Y-54709771D01*
X61335824Y-54687227D01*
X61324587Y-54663467D01*
X61315732Y-54638720D01*
X61309346Y-54613225D01*
X61305490Y-54587226D01*
X61304200Y-54560975D01*
X61304200Y-53570025D01*
X61305490Y-53543774D01*
X61309346Y-53517775D01*
X61315732Y-53492280D01*
X61324587Y-53467533D01*
X61335824Y-53443773D01*
X61349337Y-53421229D01*
X61364993Y-53400119D01*
X61382644Y-53380644D01*
X61402119Y-53362993D01*
X61423229Y-53347337D01*
X61445773Y-53333824D01*
X61469533Y-53322587D01*
X61494280Y-53313732D01*
X61519775Y-53307346D01*
X61545774Y-53303490D01*
X61572025Y-53302200D01*
X62887975Y-53302200D01*
X62914226Y-53303490D01*
X62914226Y-53303490D01*
G37*
D17*
X62230000Y-54065500D03*
D16*
G36*
X96062226Y-23967490D02*
X96088225Y-23971346D01*
X96113720Y-23977732D01*
X96138467Y-23986587D01*
X96162227Y-23997824D01*
X96184771Y-24011337D01*
X96205881Y-24026993D01*
X96225356Y-24044644D01*
X96243007Y-24064119D01*
X96258663Y-24085229D01*
X96272176Y-24107773D01*
X96283413Y-24131533D01*
X96292268Y-24156280D01*
X96298654Y-24181775D01*
X96302510Y-24207774D01*
X96303800Y-24234025D01*
X96303800Y-25549975D01*
X96302510Y-25576226D01*
X96298654Y-25602225D01*
X96292268Y-25627720D01*
X96283413Y-25652467D01*
X96272176Y-25676227D01*
X96258663Y-25698771D01*
X96243007Y-25719881D01*
X96225356Y-25739356D01*
X96205881Y-25757007D01*
X96184771Y-25772663D01*
X96162227Y-25786176D01*
X96138467Y-25797413D01*
X96113720Y-25806268D01*
X96088225Y-25812654D01*
X96062226Y-25816510D01*
X96035975Y-25817800D01*
X95045025Y-25817800D01*
X95018774Y-25816510D01*
X94992775Y-25812654D01*
X94967280Y-25806268D01*
X94942533Y-25797413D01*
X94918773Y-25786176D01*
X94896229Y-25772663D01*
X94875119Y-25757007D01*
X94855644Y-25739356D01*
X94837993Y-25719881D01*
X94822337Y-25698771D01*
X94808824Y-25676227D01*
X94797587Y-25652467D01*
X94788732Y-25627720D01*
X94782346Y-25602225D01*
X94778490Y-25576226D01*
X94777200Y-25549975D01*
X94777200Y-24234025D01*
X94778490Y-24207774D01*
X94782346Y-24181775D01*
X94788732Y-24156280D01*
X94797587Y-24131533D01*
X94808824Y-24107773D01*
X94822337Y-24085229D01*
X94837993Y-24064119D01*
X94855644Y-24044644D01*
X94875119Y-24026993D01*
X94896229Y-24011337D01*
X94918773Y-23997824D01*
X94942533Y-23986587D01*
X94967280Y-23977732D01*
X94992775Y-23971346D01*
X95018774Y-23967490D01*
X95045025Y-23966200D01*
X96035975Y-23966200D01*
X96062226Y-23967490D01*
X96062226Y-23967490D01*
G37*
D17*
X95540500Y-24892000D03*
D16*
G36*
X99037226Y-23967490D02*
X99063225Y-23971346D01*
X99088720Y-23977732D01*
X99113467Y-23986587D01*
X99137227Y-23997824D01*
X99159771Y-24011337D01*
X99180881Y-24026993D01*
X99200356Y-24044644D01*
X99218007Y-24064119D01*
X99233663Y-24085229D01*
X99247176Y-24107773D01*
X99258413Y-24131533D01*
X99267268Y-24156280D01*
X99273654Y-24181775D01*
X99277510Y-24207774D01*
X99278800Y-24234025D01*
X99278800Y-25549975D01*
X99277510Y-25576226D01*
X99273654Y-25602225D01*
X99267268Y-25627720D01*
X99258413Y-25652467D01*
X99247176Y-25676227D01*
X99233663Y-25698771D01*
X99218007Y-25719881D01*
X99200356Y-25739356D01*
X99180881Y-25757007D01*
X99159771Y-25772663D01*
X99137227Y-25786176D01*
X99113467Y-25797413D01*
X99088720Y-25806268D01*
X99063225Y-25812654D01*
X99037226Y-25816510D01*
X99010975Y-25817800D01*
X98020025Y-25817800D01*
X97993774Y-25816510D01*
X97967775Y-25812654D01*
X97942280Y-25806268D01*
X97917533Y-25797413D01*
X97893773Y-25786176D01*
X97871229Y-25772663D01*
X97850119Y-25757007D01*
X97830644Y-25739356D01*
X97812993Y-25719881D01*
X97797337Y-25698771D01*
X97783824Y-25676227D01*
X97772587Y-25652467D01*
X97763732Y-25627720D01*
X97757346Y-25602225D01*
X97753490Y-25576226D01*
X97752200Y-25549975D01*
X97752200Y-24234025D01*
X97753490Y-24207774D01*
X97757346Y-24181775D01*
X97763732Y-24156280D01*
X97772587Y-24131533D01*
X97783824Y-24107773D01*
X97797337Y-24085229D01*
X97812993Y-24064119D01*
X97830644Y-24044644D01*
X97850119Y-24026993D01*
X97871229Y-24011337D01*
X97893773Y-23997824D01*
X97917533Y-23986587D01*
X97942280Y-23977732D01*
X97967775Y-23971346D01*
X97993774Y-23967490D01*
X98020025Y-23966200D01*
X99010975Y-23966200D01*
X99037226Y-23967490D01*
X99037226Y-23967490D01*
G37*
D17*
X98515500Y-24892000D03*
D16*
G36*
X96062226Y-26507490D02*
X96088225Y-26511346D01*
X96113720Y-26517732D01*
X96138467Y-26526587D01*
X96162227Y-26537824D01*
X96184771Y-26551337D01*
X96205881Y-26566993D01*
X96225356Y-26584644D01*
X96243007Y-26604119D01*
X96258663Y-26625229D01*
X96272176Y-26647773D01*
X96283413Y-26671533D01*
X96292268Y-26696280D01*
X96298654Y-26721775D01*
X96302510Y-26747774D01*
X96303800Y-26774025D01*
X96303800Y-28089975D01*
X96302510Y-28116226D01*
X96298654Y-28142225D01*
X96292268Y-28167720D01*
X96283413Y-28192467D01*
X96272176Y-28216227D01*
X96258663Y-28238771D01*
X96243007Y-28259881D01*
X96225356Y-28279356D01*
X96205881Y-28297007D01*
X96184771Y-28312663D01*
X96162227Y-28326176D01*
X96138467Y-28337413D01*
X96113720Y-28346268D01*
X96088225Y-28352654D01*
X96062226Y-28356510D01*
X96035975Y-28357800D01*
X95045025Y-28357800D01*
X95018774Y-28356510D01*
X94992775Y-28352654D01*
X94967280Y-28346268D01*
X94942533Y-28337413D01*
X94918773Y-28326176D01*
X94896229Y-28312663D01*
X94875119Y-28297007D01*
X94855644Y-28279356D01*
X94837993Y-28259881D01*
X94822337Y-28238771D01*
X94808824Y-28216227D01*
X94797587Y-28192467D01*
X94788732Y-28167720D01*
X94782346Y-28142225D01*
X94778490Y-28116226D01*
X94777200Y-28089975D01*
X94777200Y-26774025D01*
X94778490Y-26747774D01*
X94782346Y-26721775D01*
X94788732Y-26696280D01*
X94797587Y-26671533D01*
X94808824Y-26647773D01*
X94822337Y-26625229D01*
X94837993Y-26604119D01*
X94855644Y-26584644D01*
X94875119Y-26566993D01*
X94896229Y-26551337D01*
X94918773Y-26537824D01*
X94942533Y-26526587D01*
X94967280Y-26517732D01*
X94992775Y-26511346D01*
X95018774Y-26507490D01*
X95045025Y-26506200D01*
X96035975Y-26506200D01*
X96062226Y-26507490D01*
X96062226Y-26507490D01*
G37*
D17*
X95540500Y-27432000D03*
D16*
G36*
X99037226Y-26507490D02*
X99063225Y-26511346D01*
X99088720Y-26517732D01*
X99113467Y-26526587D01*
X99137227Y-26537824D01*
X99159771Y-26551337D01*
X99180881Y-26566993D01*
X99200356Y-26584644D01*
X99218007Y-26604119D01*
X99233663Y-26625229D01*
X99247176Y-26647773D01*
X99258413Y-26671533D01*
X99267268Y-26696280D01*
X99273654Y-26721775D01*
X99277510Y-26747774D01*
X99278800Y-26774025D01*
X99278800Y-28089975D01*
X99277510Y-28116226D01*
X99273654Y-28142225D01*
X99267268Y-28167720D01*
X99258413Y-28192467D01*
X99247176Y-28216227D01*
X99233663Y-28238771D01*
X99218007Y-28259881D01*
X99200356Y-28279356D01*
X99180881Y-28297007D01*
X99159771Y-28312663D01*
X99137227Y-28326176D01*
X99113467Y-28337413D01*
X99088720Y-28346268D01*
X99063225Y-28352654D01*
X99037226Y-28356510D01*
X99010975Y-28357800D01*
X98020025Y-28357800D01*
X97993774Y-28356510D01*
X97967775Y-28352654D01*
X97942280Y-28346268D01*
X97917533Y-28337413D01*
X97893773Y-28326176D01*
X97871229Y-28312663D01*
X97850119Y-28297007D01*
X97830644Y-28279356D01*
X97812993Y-28259881D01*
X97797337Y-28238771D01*
X97783824Y-28216227D01*
X97772587Y-28192467D01*
X97763732Y-28167720D01*
X97757346Y-28142225D01*
X97753490Y-28116226D01*
X97752200Y-28089975D01*
X97752200Y-26774025D01*
X97753490Y-26747774D01*
X97757346Y-26721775D01*
X97763732Y-26696280D01*
X97772587Y-26671533D01*
X97783824Y-26647773D01*
X97797337Y-26625229D01*
X97812993Y-26604119D01*
X97830644Y-26584644D01*
X97850119Y-26566993D01*
X97871229Y-26551337D01*
X97893773Y-26537824D01*
X97917533Y-26526587D01*
X97942280Y-26517732D01*
X97967775Y-26511346D01*
X97993774Y-26507490D01*
X98020025Y-26506200D01*
X99010975Y-26506200D01*
X99037226Y-26507490D01*
X99037226Y-26507490D01*
G37*
D17*
X98515500Y-27432000D03*
D13*
X121158000Y-48006000D03*
X121158000Y-50546000D03*
X118618000Y-48006000D03*
D14*
X118618000Y-50546000D03*
D16*
G36*
X45642226Y-41692490D02*
X45668225Y-41696346D01*
X45693720Y-41702732D01*
X45718467Y-41711587D01*
X45742227Y-41722824D01*
X45764771Y-41736337D01*
X45785881Y-41751993D01*
X45805356Y-41769644D01*
X45823007Y-41789119D01*
X45838663Y-41810229D01*
X45852176Y-41832773D01*
X45863413Y-41856533D01*
X45872268Y-41881280D01*
X45878654Y-41906775D01*
X45882510Y-41932774D01*
X45883800Y-41959025D01*
X45883800Y-42949975D01*
X45882510Y-42976226D01*
X45878654Y-43002225D01*
X45872268Y-43027720D01*
X45863413Y-43052467D01*
X45852176Y-43076227D01*
X45838663Y-43098771D01*
X45823007Y-43119881D01*
X45805356Y-43139356D01*
X45785881Y-43157007D01*
X45764771Y-43172663D01*
X45742227Y-43186176D01*
X45718467Y-43197413D01*
X45693720Y-43206268D01*
X45668225Y-43212654D01*
X45642226Y-43216510D01*
X45615975Y-43217800D01*
X44300025Y-43217800D01*
X44273774Y-43216510D01*
X44247775Y-43212654D01*
X44222280Y-43206268D01*
X44197533Y-43197413D01*
X44173773Y-43186176D01*
X44151229Y-43172663D01*
X44130119Y-43157007D01*
X44110644Y-43139356D01*
X44092993Y-43119881D01*
X44077337Y-43098771D01*
X44063824Y-43076227D01*
X44052587Y-43052467D01*
X44043732Y-43027720D01*
X44037346Y-43002225D01*
X44033490Y-42976226D01*
X44032200Y-42949975D01*
X44032200Y-41959025D01*
X44033490Y-41932774D01*
X44037346Y-41906775D01*
X44043732Y-41881280D01*
X44052587Y-41856533D01*
X44063824Y-41832773D01*
X44077337Y-41810229D01*
X44092993Y-41789119D01*
X44110644Y-41769644D01*
X44130119Y-41751993D01*
X44151229Y-41736337D01*
X44173773Y-41722824D01*
X44197533Y-41711587D01*
X44222280Y-41702732D01*
X44247775Y-41696346D01*
X44273774Y-41692490D01*
X44300025Y-41691200D01*
X45615975Y-41691200D01*
X45642226Y-41692490D01*
X45642226Y-41692490D01*
G37*
D17*
X44958000Y-42454500D03*
D16*
G36*
X45642226Y-44667490D02*
X45668225Y-44671346D01*
X45693720Y-44677732D01*
X45718467Y-44686587D01*
X45742227Y-44697824D01*
X45764771Y-44711337D01*
X45785881Y-44726993D01*
X45805356Y-44744644D01*
X45823007Y-44764119D01*
X45838663Y-44785229D01*
X45852176Y-44807773D01*
X45863413Y-44831533D01*
X45872268Y-44856280D01*
X45878654Y-44881775D01*
X45882510Y-44907774D01*
X45883800Y-44934025D01*
X45883800Y-45924975D01*
X45882510Y-45951226D01*
X45878654Y-45977225D01*
X45872268Y-46002720D01*
X45863413Y-46027467D01*
X45852176Y-46051227D01*
X45838663Y-46073771D01*
X45823007Y-46094881D01*
X45805356Y-46114356D01*
X45785881Y-46132007D01*
X45764771Y-46147663D01*
X45742227Y-46161176D01*
X45718467Y-46172413D01*
X45693720Y-46181268D01*
X45668225Y-46187654D01*
X45642226Y-46191510D01*
X45615975Y-46192800D01*
X44300025Y-46192800D01*
X44273774Y-46191510D01*
X44247775Y-46187654D01*
X44222280Y-46181268D01*
X44197533Y-46172413D01*
X44173773Y-46161176D01*
X44151229Y-46147663D01*
X44130119Y-46132007D01*
X44110644Y-46114356D01*
X44092993Y-46094881D01*
X44077337Y-46073771D01*
X44063824Y-46051227D01*
X44052587Y-46027467D01*
X44043732Y-46002720D01*
X44037346Y-45977225D01*
X44033490Y-45951226D01*
X44032200Y-45924975D01*
X44032200Y-44934025D01*
X44033490Y-44907774D01*
X44037346Y-44881775D01*
X44043732Y-44856280D01*
X44052587Y-44831533D01*
X44063824Y-44807773D01*
X44077337Y-44785229D01*
X44092993Y-44764119D01*
X44110644Y-44744644D01*
X44130119Y-44726993D01*
X44151229Y-44711337D01*
X44173773Y-44697824D01*
X44197533Y-44686587D01*
X44222280Y-44677732D01*
X44247775Y-44671346D01*
X44273774Y-44667490D01*
X44300025Y-44666200D01*
X45615975Y-44666200D01*
X45642226Y-44667490D01*
X45642226Y-44667490D01*
G37*
D17*
X44958000Y-45429500D03*
D16*
G36*
X121389226Y-43779490D02*
X121415225Y-43783346D01*
X121440720Y-43789732D01*
X121465467Y-43798587D01*
X121489227Y-43809824D01*
X121511771Y-43823337D01*
X121532881Y-43838993D01*
X121552356Y-43856644D01*
X121570007Y-43876119D01*
X121585663Y-43897229D01*
X121599176Y-43919773D01*
X121610413Y-43943533D01*
X121619268Y-43968280D01*
X121625654Y-43993775D01*
X121629510Y-44019774D01*
X121630800Y-44046025D01*
X121630800Y-45361975D01*
X121629510Y-45388226D01*
X121625654Y-45414225D01*
X121619268Y-45439720D01*
X121610413Y-45464467D01*
X121599176Y-45488227D01*
X121585663Y-45510771D01*
X121570007Y-45531881D01*
X121552356Y-45551356D01*
X121532881Y-45569007D01*
X121511771Y-45584663D01*
X121489227Y-45598176D01*
X121465467Y-45609413D01*
X121440720Y-45618268D01*
X121415225Y-45624654D01*
X121389226Y-45628510D01*
X121362975Y-45629800D01*
X120372025Y-45629800D01*
X120345774Y-45628510D01*
X120319775Y-45624654D01*
X120294280Y-45618268D01*
X120269533Y-45609413D01*
X120245773Y-45598176D01*
X120223229Y-45584663D01*
X120202119Y-45569007D01*
X120182644Y-45551356D01*
X120164993Y-45531881D01*
X120149337Y-45510771D01*
X120135824Y-45488227D01*
X120124587Y-45464467D01*
X120115732Y-45439720D01*
X120109346Y-45414225D01*
X120105490Y-45388226D01*
X120104200Y-45361975D01*
X120104200Y-44046025D01*
X120105490Y-44019774D01*
X120109346Y-43993775D01*
X120115732Y-43968280D01*
X120124587Y-43943533D01*
X120135824Y-43919773D01*
X120149337Y-43897229D01*
X120164993Y-43876119D01*
X120182644Y-43856644D01*
X120202119Y-43838993D01*
X120223229Y-43823337D01*
X120245773Y-43809824D01*
X120269533Y-43798587D01*
X120294280Y-43789732D01*
X120319775Y-43783346D01*
X120345774Y-43779490D01*
X120372025Y-43778200D01*
X121362975Y-43778200D01*
X121389226Y-43779490D01*
X121389226Y-43779490D01*
G37*
D17*
X120867500Y-44704000D03*
D16*
G36*
X118414226Y-43779490D02*
X118440225Y-43783346D01*
X118465720Y-43789732D01*
X118490467Y-43798587D01*
X118514227Y-43809824D01*
X118536771Y-43823337D01*
X118557881Y-43838993D01*
X118577356Y-43856644D01*
X118595007Y-43876119D01*
X118610663Y-43897229D01*
X118624176Y-43919773D01*
X118635413Y-43943533D01*
X118644268Y-43968280D01*
X118650654Y-43993775D01*
X118654510Y-44019774D01*
X118655800Y-44046025D01*
X118655800Y-45361975D01*
X118654510Y-45388226D01*
X118650654Y-45414225D01*
X118644268Y-45439720D01*
X118635413Y-45464467D01*
X118624176Y-45488227D01*
X118610663Y-45510771D01*
X118595007Y-45531881D01*
X118577356Y-45551356D01*
X118557881Y-45569007D01*
X118536771Y-45584663D01*
X118514227Y-45598176D01*
X118490467Y-45609413D01*
X118465720Y-45618268D01*
X118440225Y-45624654D01*
X118414226Y-45628510D01*
X118387975Y-45629800D01*
X117397025Y-45629800D01*
X117370774Y-45628510D01*
X117344775Y-45624654D01*
X117319280Y-45618268D01*
X117294533Y-45609413D01*
X117270773Y-45598176D01*
X117248229Y-45584663D01*
X117227119Y-45569007D01*
X117207644Y-45551356D01*
X117189993Y-45531881D01*
X117174337Y-45510771D01*
X117160824Y-45488227D01*
X117149587Y-45464467D01*
X117140732Y-45439720D01*
X117134346Y-45414225D01*
X117130490Y-45388226D01*
X117129200Y-45361975D01*
X117129200Y-44046025D01*
X117130490Y-44019774D01*
X117134346Y-43993775D01*
X117140732Y-43968280D01*
X117149587Y-43943533D01*
X117160824Y-43919773D01*
X117174337Y-43897229D01*
X117189993Y-43876119D01*
X117207644Y-43856644D01*
X117227119Y-43838993D01*
X117248229Y-43823337D01*
X117270773Y-43809824D01*
X117294533Y-43798587D01*
X117319280Y-43789732D01*
X117344775Y-43783346D01*
X117370774Y-43779490D01*
X117397025Y-43778200D01*
X118387975Y-43778200D01*
X118414226Y-43779490D01*
X118414226Y-43779490D01*
G37*
D17*
X117892500Y-44704000D03*
D30*
X43180000Y-45920000D03*
X43180000Y-50800000D03*
D16*
G36*
X77774226Y-59019490D02*
X77800225Y-59023346D01*
X77825720Y-59029732D01*
X77850467Y-59038587D01*
X77874227Y-59049824D01*
X77896771Y-59063337D01*
X77917881Y-59078993D01*
X77937356Y-59096644D01*
X77955007Y-59116119D01*
X77970663Y-59137229D01*
X77984176Y-59159773D01*
X77995413Y-59183533D01*
X78004268Y-59208280D01*
X78010654Y-59233775D01*
X78014510Y-59259774D01*
X78015800Y-59286025D01*
X78015800Y-60601975D01*
X78014510Y-60628226D01*
X78010654Y-60654225D01*
X78004268Y-60679720D01*
X77995413Y-60704467D01*
X77984176Y-60728227D01*
X77970663Y-60750771D01*
X77955007Y-60771881D01*
X77937356Y-60791356D01*
X77917881Y-60809007D01*
X77896771Y-60824663D01*
X77874227Y-60838176D01*
X77850467Y-60849413D01*
X77825720Y-60858268D01*
X77800225Y-60864654D01*
X77774226Y-60868510D01*
X77747975Y-60869800D01*
X76757025Y-60869800D01*
X76730774Y-60868510D01*
X76704775Y-60864654D01*
X76679280Y-60858268D01*
X76654533Y-60849413D01*
X76630773Y-60838176D01*
X76608229Y-60824663D01*
X76587119Y-60809007D01*
X76567644Y-60791356D01*
X76549993Y-60771881D01*
X76534337Y-60750771D01*
X76520824Y-60728227D01*
X76509587Y-60704467D01*
X76500732Y-60679720D01*
X76494346Y-60654225D01*
X76490490Y-60628226D01*
X76489200Y-60601975D01*
X76489200Y-59286025D01*
X76490490Y-59259774D01*
X76494346Y-59233775D01*
X76500732Y-59208280D01*
X76509587Y-59183533D01*
X76520824Y-59159773D01*
X76534337Y-59137229D01*
X76549993Y-59116119D01*
X76567644Y-59096644D01*
X76587119Y-59078993D01*
X76608229Y-59063337D01*
X76630773Y-59049824D01*
X76654533Y-59038587D01*
X76679280Y-59029732D01*
X76704775Y-59023346D01*
X76730774Y-59019490D01*
X76757025Y-59018200D01*
X77747975Y-59018200D01*
X77774226Y-59019490D01*
X77774226Y-59019490D01*
G37*
D17*
X77252500Y-59944000D03*
D16*
G36*
X80749226Y-59019490D02*
X80775225Y-59023346D01*
X80800720Y-59029732D01*
X80825467Y-59038587D01*
X80849227Y-59049824D01*
X80871771Y-59063337D01*
X80892881Y-59078993D01*
X80912356Y-59096644D01*
X80930007Y-59116119D01*
X80945663Y-59137229D01*
X80959176Y-59159773D01*
X80970413Y-59183533D01*
X80979268Y-59208280D01*
X80985654Y-59233775D01*
X80989510Y-59259774D01*
X80990800Y-59286025D01*
X80990800Y-60601975D01*
X80989510Y-60628226D01*
X80985654Y-60654225D01*
X80979268Y-60679720D01*
X80970413Y-60704467D01*
X80959176Y-60728227D01*
X80945663Y-60750771D01*
X80930007Y-60771881D01*
X80912356Y-60791356D01*
X80892881Y-60809007D01*
X80871771Y-60824663D01*
X80849227Y-60838176D01*
X80825467Y-60849413D01*
X80800720Y-60858268D01*
X80775225Y-60864654D01*
X80749226Y-60868510D01*
X80722975Y-60869800D01*
X79732025Y-60869800D01*
X79705774Y-60868510D01*
X79679775Y-60864654D01*
X79654280Y-60858268D01*
X79629533Y-60849413D01*
X79605773Y-60838176D01*
X79583229Y-60824663D01*
X79562119Y-60809007D01*
X79542644Y-60791356D01*
X79524993Y-60771881D01*
X79509337Y-60750771D01*
X79495824Y-60728227D01*
X79484587Y-60704467D01*
X79475732Y-60679720D01*
X79469346Y-60654225D01*
X79465490Y-60628226D01*
X79464200Y-60601975D01*
X79464200Y-59286025D01*
X79465490Y-59259774D01*
X79469346Y-59233775D01*
X79475732Y-59208280D01*
X79484587Y-59183533D01*
X79495824Y-59159773D01*
X79509337Y-59137229D01*
X79524993Y-59116119D01*
X79542644Y-59096644D01*
X79562119Y-59078993D01*
X79583229Y-59063337D01*
X79605773Y-59049824D01*
X79629533Y-59038587D01*
X79654280Y-59029732D01*
X79679775Y-59023346D01*
X79705774Y-59019490D01*
X79732025Y-59018200D01*
X80722975Y-59018200D01*
X80749226Y-59019490D01*
X80749226Y-59019490D01*
G37*
D17*
X80227500Y-59944000D03*
D16*
G36*
X71296226Y-45502490D02*
X71322225Y-45506346D01*
X71347720Y-45512732D01*
X71372467Y-45521587D01*
X71396227Y-45532824D01*
X71418771Y-45546337D01*
X71439881Y-45561993D01*
X71459356Y-45579644D01*
X71477007Y-45599119D01*
X71492663Y-45620229D01*
X71506176Y-45642773D01*
X71517413Y-45666533D01*
X71526268Y-45691280D01*
X71532654Y-45716775D01*
X71536510Y-45742774D01*
X71537800Y-45769025D01*
X71537800Y-46759975D01*
X71536510Y-46786226D01*
X71532654Y-46812225D01*
X71526268Y-46837720D01*
X71517413Y-46862467D01*
X71506176Y-46886227D01*
X71492663Y-46908771D01*
X71477007Y-46929881D01*
X71459356Y-46949356D01*
X71439881Y-46967007D01*
X71418771Y-46982663D01*
X71396227Y-46996176D01*
X71372467Y-47007413D01*
X71347720Y-47016268D01*
X71322225Y-47022654D01*
X71296226Y-47026510D01*
X71269975Y-47027800D01*
X69954025Y-47027800D01*
X69927774Y-47026510D01*
X69901775Y-47022654D01*
X69876280Y-47016268D01*
X69851533Y-47007413D01*
X69827773Y-46996176D01*
X69805229Y-46982663D01*
X69784119Y-46967007D01*
X69764644Y-46949356D01*
X69746993Y-46929881D01*
X69731337Y-46908771D01*
X69717824Y-46886227D01*
X69706587Y-46862467D01*
X69697732Y-46837720D01*
X69691346Y-46812225D01*
X69687490Y-46786226D01*
X69686200Y-46759975D01*
X69686200Y-45769025D01*
X69687490Y-45742774D01*
X69691346Y-45716775D01*
X69697732Y-45691280D01*
X69706587Y-45666533D01*
X69717824Y-45642773D01*
X69731337Y-45620229D01*
X69746993Y-45599119D01*
X69764644Y-45579644D01*
X69784119Y-45561993D01*
X69805229Y-45546337D01*
X69827773Y-45532824D01*
X69851533Y-45521587D01*
X69876280Y-45512732D01*
X69901775Y-45506346D01*
X69927774Y-45502490D01*
X69954025Y-45501200D01*
X71269975Y-45501200D01*
X71296226Y-45502490D01*
X71296226Y-45502490D01*
G37*
D17*
X70612000Y-46264500D03*
D16*
G36*
X71296226Y-48477490D02*
X71322225Y-48481346D01*
X71347720Y-48487732D01*
X71372467Y-48496587D01*
X71396227Y-48507824D01*
X71418771Y-48521337D01*
X71439881Y-48536993D01*
X71459356Y-48554644D01*
X71477007Y-48574119D01*
X71492663Y-48595229D01*
X71506176Y-48617773D01*
X71517413Y-48641533D01*
X71526268Y-48666280D01*
X71532654Y-48691775D01*
X71536510Y-48717774D01*
X71537800Y-48744025D01*
X71537800Y-49734975D01*
X71536510Y-49761226D01*
X71532654Y-49787225D01*
X71526268Y-49812720D01*
X71517413Y-49837467D01*
X71506176Y-49861227D01*
X71492663Y-49883771D01*
X71477007Y-49904881D01*
X71459356Y-49924356D01*
X71439881Y-49942007D01*
X71418771Y-49957663D01*
X71396227Y-49971176D01*
X71372467Y-49982413D01*
X71347720Y-49991268D01*
X71322225Y-49997654D01*
X71296226Y-50001510D01*
X71269975Y-50002800D01*
X69954025Y-50002800D01*
X69927774Y-50001510D01*
X69901775Y-49997654D01*
X69876280Y-49991268D01*
X69851533Y-49982413D01*
X69827773Y-49971176D01*
X69805229Y-49957663D01*
X69784119Y-49942007D01*
X69764644Y-49924356D01*
X69746993Y-49904881D01*
X69731337Y-49883771D01*
X69717824Y-49861227D01*
X69706587Y-49837467D01*
X69697732Y-49812720D01*
X69691346Y-49787225D01*
X69687490Y-49761226D01*
X69686200Y-49734975D01*
X69686200Y-48744025D01*
X69687490Y-48717774D01*
X69691346Y-48691775D01*
X69697732Y-48666280D01*
X69706587Y-48641533D01*
X69717824Y-48617773D01*
X69731337Y-48595229D01*
X69746993Y-48574119D01*
X69764644Y-48554644D01*
X69784119Y-48536993D01*
X69805229Y-48521337D01*
X69827773Y-48507824D01*
X69851533Y-48496587D01*
X69876280Y-48487732D01*
X69901775Y-48481346D01*
X69927774Y-48477490D01*
X69954025Y-48476200D01*
X71269975Y-48476200D01*
X71296226Y-48477490D01*
X71296226Y-48477490D01*
G37*
D17*
X70612000Y-49239500D03*
D16*
G36*
X69264226Y-45502490D02*
X69290225Y-45506346D01*
X69315720Y-45512732D01*
X69340467Y-45521587D01*
X69364227Y-45532824D01*
X69386771Y-45546337D01*
X69407881Y-45561993D01*
X69427356Y-45579644D01*
X69445007Y-45599119D01*
X69460663Y-45620229D01*
X69474176Y-45642773D01*
X69485413Y-45666533D01*
X69494268Y-45691280D01*
X69500654Y-45716775D01*
X69504510Y-45742774D01*
X69505800Y-45769025D01*
X69505800Y-46759975D01*
X69504510Y-46786226D01*
X69500654Y-46812225D01*
X69494268Y-46837720D01*
X69485413Y-46862467D01*
X69474176Y-46886227D01*
X69460663Y-46908771D01*
X69445007Y-46929881D01*
X69427356Y-46949356D01*
X69407881Y-46967007D01*
X69386771Y-46982663D01*
X69364227Y-46996176D01*
X69340467Y-47007413D01*
X69315720Y-47016268D01*
X69290225Y-47022654D01*
X69264226Y-47026510D01*
X69237975Y-47027800D01*
X67922025Y-47027800D01*
X67895774Y-47026510D01*
X67869775Y-47022654D01*
X67844280Y-47016268D01*
X67819533Y-47007413D01*
X67795773Y-46996176D01*
X67773229Y-46982663D01*
X67752119Y-46967007D01*
X67732644Y-46949356D01*
X67714993Y-46929881D01*
X67699337Y-46908771D01*
X67685824Y-46886227D01*
X67674587Y-46862467D01*
X67665732Y-46837720D01*
X67659346Y-46812225D01*
X67655490Y-46786226D01*
X67654200Y-46759975D01*
X67654200Y-45769025D01*
X67655490Y-45742774D01*
X67659346Y-45716775D01*
X67665732Y-45691280D01*
X67674587Y-45666533D01*
X67685824Y-45642773D01*
X67699337Y-45620229D01*
X67714993Y-45599119D01*
X67732644Y-45579644D01*
X67752119Y-45561993D01*
X67773229Y-45546337D01*
X67795773Y-45532824D01*
X67819533Y-45521587D01*
X67844280Y-45512732D01*
X67869775Y-45506346D01*
X67895774Y-45502490D01*
X67922025Y-45501200D01*
X69237975Y-45501200D01*
X69264226Y-45502490D01*
X69264226Y-45502490D01*
G37*
D17*
X68580000Y-46264500D03*
D16*
G36*
X69264226Y-48477490D02*
X69290225Y-48481346D01*
X69315720Y-48487732D01*
X69340467Y-48496587D01*
X69364227Y-48507824D01*
X69386771Y-48521337D01*
X69407881Y-48536993D01*
X69427356Y-48554644D01*
X69445007Y-48574119D01*
X69460663Y-48595229D01*
X69474176Y-48617773D01*
X69485413Y-48641533D01*
X69494268Y-48666280D01*
X69500654Y-48691775D01*
X69504510Y-48717774D01*
X69505800Y-48744025D01*
X69505800Y-49734975D01*
X69504510Y-49761226D01*
X69500654Y-49787225D01*
X69494268Y-49812720D01*
X69485413Y-49837467D01*
X69474176Y-49861227D01*
X69460663Y-49883771D01*
X69445007Y-49904881D01*
X69427356Y-49924356D01*
X69407881Y-49942007D01*
X69386771Y-49957663D01*
X69364227Y-49971176D01*
X69340467Y-49982413D01*
X69315720Y-49991268D01*
X69290225Y-49997654D01*
X69264226Y-50001510D01*
X69237975Y-50002800D01*
X67922025Y-50002800D01*
X67895774Y-50001510D01*
X67869775Y-49997654D01*
X67844280Y-49991268D01*
X67819533Y-49982413D01*
X67795773Y-49971176D01*
X67773229Y-49957663D01*
X67752119Y-49942007D01*
X67732644Y-49924356D01*
X67714993Y-49904881D01*
X67699337Y-49883771D01*
X67685824Y-49861227D01*
X67674587Y-49837467D01*
X67665732Y-49812720D01*
X67659346Y-49787225D01*
X67655490Y-49761226D01*
X67654200Y-49734975D01*
X67654200Y-48744025D01*
X67655490Y-48717774D01*
X67659346Y-48691775D01*
X67665732Y-48666280D01*
X67674587Y-48641533D01*
X67685824Y-48617773D01*
X67699337Y-48595229D01*
X67714993Y-48574119D01*
X67732644Y-48554644D01*
X67752119Y-48536993D01*
X67773229Y-48521337D01*
X67795773Y-48507824D01*
X67819533Y-48496587D01*
X67844280Y-48487732D01*
X67869775Y-48481346D01*
X67895774Y-48477490D01*
X67922025Y-48476200D01*
X69237975Y-48476200D01*
X69264226Y-48477490D01*
X69264226Y-48477490D01*
G37*
D17*
X68580000Y-49239500D03*
M02*
