M48
;DRILL file {KiCad 5.0.0-fee4fd1~66~ubuntu18.04.1} date Sun Sep  9 22:09:24 2018
;FORMAT={2:4/ absolute / inch / suppress leading zeros}
FMAT,2
INCH,TZ
T1C0.0130
T2C0.0157
T3C0.0197
T4C0.0236
T5C0.0276
T6C0.0315
T7C0.0335
T8C0.0394
T9C0.0433
T10C0.0512
T11C0.0866
T12C0.0866
%
G90
G05
M72
T1
X15900Y-22000
X18400Y-25500
X18800Y-14300
X19200Y-12200
X22500Y-12100
X23100Y-27000
X23400Y-27500
X23444Y-18856
X23675Y-20750
X25142Y-24824
X25500Y-7900
X25700Y-10400
X25800Y-9614
X26061Y-26942
X26300Y-18300
X26400Y-12500
X26600Y-9600
X26900Y-16700
X27200Y-25700
X27400Y-26942
X31000Y-25800
X31700Y-18300
X31700Y-19600
X31800Y-21400
X31900Y-24400
X32100Y-12900
X32750Y-9750
X33300Y-7700
X36450Y-22650
X36600Y-15500
X37300Y-19150
X38300Y-24850
X40950Y-20600
X41559Y-10468
X42100Y-10700
X42100Y-12300
X42400Y-13800
X42972Y-9828
X43370Y-9339
X43472Y-9653
X43639Y-8957
X45000Y-11000
X45000Y-13800
X45100Y-12000
T2
X15750Y-8000
X15941Y-7541
X15941Y-8459
X16400Y-7350
X16400Y-8650
X16859Y-7541
X16859Y-8459
X17050Y-8000
X46750Y-8000
X46941Y-7541
X46941Y-8459
X47400Y-7350
X47400Y-8650
X47859Y-7541
X47859Y-8459
X48050Y-8000
X46750Y-27000
X46941Y-26541
X46941Y-27459
X47400Y-26350
X47400Y-27650
X47859Y-26541
X47859Y-27459
X48050Y-27000
T3
X17800Y-12000
X34600Y-15600
X21300Y-15200
X31900Y-16500
X38600Y-13600
T4
X24100Y-27000
X24887Y-27000
T5
X21300Y-19000
X22087Y-19000
X20500Y-17100
X21287Y-17100
X25400Y-19400
X26187Y-19400
T6
X32300Y-15600
X32300Y-22600
X32300Y-23600
X33500Y-10600
X33500Y-11600
X33500Y-12600
X33500Y-13600
X33500Y-14600
X33500Y-16600
X33500Y-17600
X33500Y-18600
X33500Y-19600
X33500Y-20600
X33500Y-21600
X39500Y-9500
X39500Y-11600
X39500Y-12600
X39500Y-13600
X39500Y-14600
X39500Y-15600
X39500Y-16600
X39500Y-17600
X39500Y-18600
X39500Y-19600
X39500Y-20600
X39500Y-21600
X39500Y-22600
X39500Y-23600
X42100Y-22400
X43084Y-22400
X19500Y-14100
X19500Y-15100
X19500Y-16100
X19500Y-17100
X19500Y-18100
X19500Y-19100
X19500Y-20100
X19500Y-21100
X19500Y-22100
X20500Y-13100
X20500Y-14100
X20500Y-15100
X20500Y-16100
X20500Y-17100
X20500Y-18100
X20500Y-19100
X20500Y-20100
X20500Y-21100
X20500Y-22100
X20500Y-23100
X21500Y-13100
X21500Y-14100
X21500Y-22100
X21500Y-23100
X22500Y-13100
X22500Y-14100
X22500Y-22100
X22500Y-23100
X23500Y-13100
X23500Y-14100
X23500Y-22100
X23500Y-23100
X24500Y-13100
X24500Y-14100
X24500Y-22100
X24500Y-23100
X25500Y-13100
X25500Y-14100
X25500Y-22100
X25500Y-23100
X26500Y-13100
X26500Y-14100
X26500Y-22100
X26500Y-23100
X27500Y-13100
X27500Y-14100
X27500Y-22100
X27500Y-23100
X28500Y-13100
X28500Y-14100
X28500Y-15100
X28500Y-16100
X28500Y-17100
X28500Y-18100
X28500Y-19100
X28500Y-20100
X28500Y-21100
X28500Y-22100
X28500Y-23100
X29500Y-14100
X29500Y-15100
X29500Y-16100
X29500Y-17100
X29500Y-18100
X29500Y-19100
X29500Y-20100
X29500Y-21100
X29500Y-22100
X42100Y-26200
X43084Y-26200
X17000Y-18079
X17000Y-20000
X41286Y-7900
X41286Y-8900
X41286Y-9900
X41286Y-10900
X41286Y-11900
X41286Y-12900
X41286Y-13900
X41286Y-14900
X44286Y-7900
X44286Y-8900
X44286Y-9900
X44286Y-10900
X44286Y-11900
X44286Y-12900
X44286Y-13900
X44286Y-14900
X33500Y-10600
X33500Y-11600
X33500Y-12600
X33500Y-13600
X33500Y-14600
X33500Y-15600
X33500Y-16600
X33500Y-17600
X33500Y-18600
X33500Y-19600
X33500Y-20600
X33500Y-21600
X33500Y-22600
X33500Y-23600
X33500Y-24600
X33500Y-25600
X39500Y-10600
X39500Y-11600
X39500Y-12600
X39500Y-13600
X39500Y-14600
X39500Y-15600
X39500Y-16600
X39500Y-17600
X39500Y-18600
X39500Y-19600
X39500Y-20600
X39500Y-21600
X39500Y-22600
X39500Y-23600
X39500Y-24600
X39500Y-25600
X25000Y-8200
X25000Y-11200
X26000Y-8200
X26000Y-11200
X27000Y-8200
X27000Y-11200
X28000Y-8200
X28000Y-11200
X29000Y-8200
X29000Y-11200
X30000Y-8200
X30000Y-11200
X31000Y-8200
X31000Y-11200
X32000Y-8200
X32000Y-11200
T7
X46424Y-22416
X46424Y-24384
T8
X18200Y-9800
X18200Y-10800
X19200Y-9800
X19200Y-10800
X20200Y-9800
X20200Y-10800
X21200Y-9800
X21200Y-10800
X22200Y-9800
X22200Y-10800
X23200Y-9800
X23200Y-10800
X35200Y-8000
X35200Y-9000
X36200Y-8000
X36200Y-9000
X37200Y-8000
X37200Y-9000
X38200Y-8000
X38200Y-9000
X17400Y-13000
X17400Y-14000
X17400Y-15000
X46700Y-18900
X46700Y-19900
X47700Y-18900
X47700Y-19900
X46400Y-9800
X46400Y-10800
X46400Y-11800
X46400Y-12800
X46400Y-13800
X46400Y-14800
X46400Y-15800
X46400Y-16800
X47400Y-9800
X47400Y-10800
X47400Y-11800
X47400Y-12800
X47400Y-13800
X47400Y-14800
X47400Y-15800
X47400Y-16800
X18200Y-8200
X19200Y-8200
X20200Y-8200
X21200Y-8200
X22200Y-8200
X23200Y-8200
X16400Y-22500
X16400Y-23500
X16400Y-24500
X16400Y-25500
X17400Y-22500
X17400Y-23500
X17400Y-24500
X17400Y-25500
X42200Y-19700
X42204Y-17700
T9
X19400Y-25200
X19400Y-26972
X21959Y-25200
X21959Y-26972
T10
X47487Y-22022
X47487Y-24778
T11
X47400Y-27000
X16400Y-8000
X47400Y-8000
T12
X16400Y-27000
T0
M30
